<svg width="84" height="84" viewBox="0 0 84 84" fill="none" xmlns="http://www.w3.org/2000/svg">
<path fill-rule="evenodd" clip-rule="evenodd" d="M51.6444 12.1333C53.2 12.7556 54.7556 13.3778 56.3111 14L63.7778 8.4C65.3333 7.46667 67.2 7.77778 68.1333 8.71111L74.9778 15.5556C76.2222 16.8 76.2222 18.6667 75.2889 19.9111L70 27.6889C70.6222 29.2444 71.2444 30.8 71.8667 32.3556L81.2 33.9111C82.7556 33.9111 84 35.4667 84 37.0222V46.6667C84 48.2222 82.7556 49.7778 81.2 50.0889L71.8667 51.6444C71.2444 53.2 70.6222 54.7556 70 56.3111L75.6 63.7778C76.5333 65.3333 76.2222 67.2 75.2889 68.1333L68.4444 74.9778C67.2 76.2222 65.3333 76.2222 64.0889 75.2889L56.3111 70C54.7556 70.6222 53.2 71.2444 51.6444 71.8667L50.0889 81.2C49.7778 82.7556 48.2222 84 46.6667 84H37.0222C35.4667 84 33.9111 82.7556 33.9111 81.2L32.3556 71.8667C30.8 71.2444 29.2444 70.6222 27.6889 70L19.9111 75.2889C18.6667 76.2222 16.8 76.2222 15.5556 74.9778L8.71111 68.1333C7.77778 67.2 7.46667 65.3333 8.4 64.0889L14 56.3111C13.0667 54.7556 12.4444 53.2 12.1333 51.6444L2.8 50.0889C1.24444 49.7778 0 48.2222 0 46.6667V37.0222C0 35.4667 1.24444 33.9111 2.8 33.9111L12.1333 32.3556C12.4444 30.4889 13.0667 29.2444 14 27.6889L8.4 19.9111C7.46667 18.6667 7.77778 16.8 9.02222 15.5556L15.8667 8.71111C16.8 7.77778 18.6667 7.46667 19.9111 8.4L27.6889 14C29.2444 13.3778 30.8 12.7556 32.3556 12.1333L33.9111 2.8C33.9111 1.24444 35.4667 0 37.0222 0H46.6667C48.2222 0 49.7778 1.24444 50.0889 2.8L51.6444 12.1333ZM42 24.2667C32.3556 24.2667 24.2667 32.3556 24.2667 42C24.2667 51.6444 32.3556 59.7333 42 59.7333C51.6444 59.7333 59.7333 51.6444 59.7333 42C59.7333 32.3556 51.6444 24.2667 42 24.2667Z" fill="#E4F4FE"/>
</svg>
