<svg width="69" height="69" viewBox="0 0 69 69" fill="none" xmlns="http://www.w3.org/2000/svg">
<path fill-rule="evenodd" clip-rule="evenodd" d="M27.883 0C32.2943 0 36.7057 0 41.117 0C43.1978 0 44.9457 1.74789 44.9457 3.82871C44.9457 10.5706 44.9457 17.3124 44.9457 23.9711C51.6876 23.9711 58.4294 23.9711 65.1713 23.9711C67.2521 23.9711 69 25.7189 69 27.883C69 32.2943 69 36.7057 69 41.117C69 43.1978 67.2521 44.9457 65.1713 44.9457C58.4294 44.9457 51.6876 44.9457 44.9457 44.9457C44.9457 51.6876 44.9457 58.4294 44.9457 65.1713C44.9457 67.2521 43.1978 69 41.117 69C36.7057 69 32.2943 69 27.883 69C25.7189 69 23.9711 67.2521 23.9711 65.1713C23.9711 58.4294 23.9711 51.6876 23.9711 44.9457C17.3124 44.9457 10.5706 44.9457 3.82871 44.9457C1.74789 44.9457 0 43.1978 0 41.117C0 36.7057 0 32.2943 0 27.883C0 25.7189 1.74789 23.9711 3.82871 23.9711C10.5706 23.9711 17.3124 23.9711 23.9711 23.9711C23.9711 17.3124 23.9711 10.5706 23.9711 3.82871C23.9711 1.74789 25.7189 0 27.883 0Z" fill="#C5E3FF"/>
</svg>
