<svg width="82" height="72" viewBox="0 0 82 72" fill="none" xmlns="http://www.w3.org/2000/svg">
<path d="M71.1609 0C65.1914 9.35065e-06 60.3218 4.83101 60.3218 10.7532C60.3218 13.2089 61.1546 15.4849 62.5603 17.2987L56.9641 22.8214C53.9236 20.2635 50.0013 18.7013 45.7126 18.7013C36.0993 18.7013 28.2759 26.4628 28.2759 36C28.2759 37.0509 28.3885 38.0976 28.5704 39.0974L20.824 41.1721C19.1746 37.3149 15.3162 34.5974 10.8391 34.5974C4.86958 34.5974 6.50345e-06 39.4283 0 45.3506C-5.37241e-06 51.2729 4.86956 56.1039 10.8391 56.1039C16.8086 56.1039 21.6782 51.2729 21.6782 45.3506C21.6782 44.8403 21.6303 44.3521 21.5603 43.8604L29.3068 41.7857C31.7106 48.4891 38.1422 53.2987 45.7126 53.2987C50.0162 53.2987 53.9487 51.7525 56.9935 49.1786L62.5898 54.7013C61.1687 56.5205 60.3218 58.7763 60.3218 61.2468C60.3218 67.169 65.1914 72 71.1609 72C77.1304 72 82 67.169 82 61.2468C82 55.3244 77.1304 50.4935 71.1609 50.4935C68.6981 50.4935 66.4163 51.3324 64.5927 52.7143L58.9964 47.1916C61.5813 44.1734 63.1494 40.2607 63.1494 36C63.1494 31.7246 61.5678 27.8309 58.967 24.8084L64.5632 19.2857C66.3915 20.6803 68.6857 21.5065 71.1609 21.5065C77.1304 21.5065 82 16.6755 82 10.7532C82 4.83101 77.1304 0 71.1609 0Z" fill="#FFDCDA"/>
</svg>
