<svg width="62" height="62" viewBox="0 0 62 62" fill="none" xmlns="http://www.w3.org/2000/svg">
<path fill-rule="evenodd" clip-rule="evenodd" d="M38.1185 8.95556C39.2667 9.41482 40.4148 9.87407 41.563 10.3333L47.0741 6.2C48.2222 5.51111 49.6 5.74074 50.2889 6.42963L55.3407 11.4815C56.2593 12.4 56.2593 13.7778 55.5704 14.6963L51.6667 20.437C52.1259 21.5852 52.5852 22.7333 53.0444 23.8815L59.9333 25.0296C61.0815 25.0296 62 26.1778 62 27.3259V34.4444C62 35.5926 61.0815 36.7407 59.9333 36.9704L53.0444 38.1185C52.5852 39.2667 52.1259 40.4148 51.6667 41.563L55.8 47.0741C56.4889 48.2222 56.2593 49.6 55.5704 50.2889L50.5185 55.3407C49.6 56.2593 48.2222 56.2593 47.3037 55.5704L41.563 51.6667C40.4148 52.1259 39.2667 52.5852 38.1185 53.0444L36.9704 59.9333C36.7407 61.0815 35.5926 62 34.4444 62H27.3259C26.1778 62 25.0296 61.0815 25.0296 59.9333L23.8815 53.0444C22.7333 52.5852 21.5852 52.1259 20.437 51.6667L14.6963 55.5704C13.7778 56.2593 12.4 56.2593 11.4815 55.3407L6.42963 50.2889C5.74074 49.6 5.51111 48.2222 6.2 47.3037L10.3333 41.563C9.64444 40.4148 9.18519 39.2667 8.95556 38.1185L2.06667 36.9704C0.918519 36.7407 0 35.5926 0 34.4444V27.3259C0 26.1778 0.918519 25.0296 2.06667 25.0296L8.95556 23.8815C9.18519 22.5037 9.64444 21.5852 10.3333 20.437L6.2 14.6963C5.51111 13.7778 5.74074 12.4 6.65926 11.4815L11.7111 6.42963C12.4 5.74074 13.7778 5.51111 14.6963 6.2L20.437 10.3333C21.5852 9.87407 22.7333 9.41482 23.8815 8.95556L25.0296 2.06667C25.0296 0.918519 26.1778 0 27.3259 0H34.4444C35.5926 0 36.7407 0.918519 36.9704 2.06667L38.1185 8.95556ZM31 17.9111C23.8815 17.9111 17.9111 23.8815 17.9111 31C17.9111 38.1185 23.8815 44.0889 31 44.0889C38.1185 44.0889 44.0889 38.1185 44.0889 31C44.0889 23.8815 38.1185 17.9111 31 17.9111Z" fill="#E5F4FE"/>
</svg>
