<svg width="65" height="58" viewBox="0 0 65 58" fill="none" xmlns="http://www.w3.org/2000/svg">
<path d="M56.408 0C51.6761 7.53247e-06 47.8161 3.89165 47.8161 8.66234C47.8161 10.6405 48.4762 12.474 49.5905 13.9351L45.1545 18.3839C42.7443 16.3234 39.6351 15.0649 36.2356 15.0649C28.6153 15.0649 22.4138 21.3172 22.4138 29C22.4138 29.8466 22.5031 30.6898 22.6473 31.4951L16.5068 33.1664C15.1994 30.0593 12.1409 27.8701 8.59195 27.8701C3.86003 27.8701 5.15518e-06 31.7617 0 36.5325C-4.25862e-06 41.3032 3.86002 45.1948 8.59195 45.1948C13.3239 45.1948 17.1839 41.3032 17.1839 36.5325C17.1839 36.1213 17.1459 35.7281 17.0905 35.332L23.231 33.6607C25.1365 39.0607 30.2346 42.9351 36.2356 42.9351C39.647 42.9351 42.7642 41.6895 45.1778 39.6161L49.6139 44.0649C48.4874 45.5304 47.8161 47.3476 47.8161 49.3377C47.8161 54.1083 51.6761 58 56.408 58C61.14 58 65 54.1083 65 49.3377C65 44.5669 61.14 40.6753 56.408 40.6753C54.4558 40.6753 52.6471 41.3511 51.2015 42.4643L46.7654 38.0154C48.8144 35.5841 50.0575 32.4322 50.0575 29C50.0575 25.5559 48.8038 22.4193 46.7421 19.9846L51.1782 15.5357C52.6274 16.6591 54.446 17.3247 56.408 17.3247C61.14 17.3247 65 13.433 65 8.66234C65 3.89165 61.14 0 56.408 0Z" fill="#FFF3F2"/>
</svg>
