<svg width="38" height="38" viewBox="0 0 38 38" fill="none" xmlns="http://www.w3.org/2000/svg">
<path fill-rule="evenodd" clip-rule="evenodd" d="M15.3559 0C17.7853 0 20.2147 0 22.6441 0C23.7901 0 24.7527 0.962605 24.7527 2.10856C24.7527 5.82147 24.7527 9.53438 24.7527 13.2014C28.4656 13.2014 32.1785 13.2014 35.8914 13.2014C37.0374 13.2014 38 14.1641 38 15.3558C38 17.7853 38 20.2147 38 22.6441C38 23.7901 37.0374 24.7527 35.8914 24.7527C32.1785 24.7527 28.4656 24.7527 24.7527 24.7527C24.7527 28.4656 24.7527 32.1785 24.7527 35.8914C24.7527 37.0374 23.7901 38 22.6441 38C20.2147 38 17.7853 38 15.3559 38C14.1641 38 13.2014 37.0374 13.2014 35.8914C13.2014 32.1785 13.2014 28.4656 13.2014 24.7527C9.53438 24.7527 5.82147 24.7527 2.10856 24.7527C0.962606 24.7527 0 23.7901 0 22.6441C0 20.2147 0 17.7853 0 15.3558C0 14.1641 0.962606 13.2014 2.10856 13.2014C5.82147 13.2014 9.53438 13.2014 13.2014 13.2014C13.2014 9.53438 13.2014 5.82147 13.2014 2.10856C13.2014 0.962605 14.1641 0 15.3559 0Z" fill="#E6EEF9"/>
</svg>
