<svg width="49" height="49" viewBox="0 0 49 49" fill="none" xmlns="http://www.w3.org/2000/svg">
<path fill-rule="evenodd" clip-rule="evenodd" d="M19.801 0C22.9337 0 26.0663 0 29.199 0C30.6767 0 31.918 1.24125 31.918 2.71894C31.918 7.50663 31.918 12.2943 31.918 17.0229C36.7057 17.0229 41.4934 17.0229 46.2811 17.0229C47.7587 17.0229 49 18.2642 49 19.801C49 22.9337 49 26.0663 49 29.199C49 30.6767 47.7587 31.918 46.2811 31.918C41.4934 31.918 36.7057 31.918 31.918 31.918C31.918 36.7057 31.918 41.4934 31.918 46.2811C31.918 47.7587 30.6767 49 29.199 49C26.0663 49 22.9337 49 19.801 49C18.2642 49 17.0229 47.7587 17.0229 46.2811C17.0229 41.4934 17.0229 36.7057 17.0229 31.918C12.2943 31.918 7.50664 31.918 2.71894 31.918C1.24125 31.918 0 30.6767 0 29.199C0 26.0663 0 22.9337 0 19.801C0 18.2642 1.24125 17.0229 2.71894 17.0229C7.50664 17.0229 12.2943 17.0229 17.0229 17.0229C17.0229 12.2943 17.0229 7.50663 17.0229 2.71894C17.0229 1.24125 18.2642 0 19.801 0Z" fill="#E9F4FF"/>
</svg>
