<svg width="132" height="121" viewBox="0 0 132 121" fill="none" xmlns="http://www.w3.org/2000/svg">
<path fill-rule="evenodd" clip-rule="evenodd" d="M114.627 39.2007C119.837 51.024 134.128 60.9806 130.763 73.3963C127.384 85.8644 109.677 86.3959 99.6619 94.4203C90.0773 102.1 85.4338 115.967 73.5958 119.201C60.9069 122.667 47.1296 118.547 35.667 111.902C23.9057 105.083 15.1012 94.2952 9.30694 81.9293C3.25591 69.0152 -3.42667 53.7403 2.35079 40.7984C8.05597 28.0183 25.2704 26.8723 37.1352 19.5917C46.6269 13.7674 53.9689 4.8074 64.8522 2.44601C76.9313 -0.174848 90.9263 -1.65853 100.953 5.74501C110.855 13.0569 109.647 27.8996 114.627 39.2007Z" fill="#FFE6E4"/>
</svg>
