<svg width="134" height="133" viewBox="0 0 134 133" fill="none" xmlns="http://www.w3.org/2000/svg">
<path fill-rule="evenodd" clip-rule="evenodd" d="M62.7513 0.108384C76.519 1.57463 81.1196 19.5908 91.9563 28.2138C102.049 36.2448 116.826 37.7068 123.712 48.6162C131.527 60.9969 137.672 77.5188 131.439 90.7676C125.217 103.995 107.045 104.839 94.0866 111.592C83.5635 117.075 74.298 123.83 62.7513 126.559C47.981 130.051 31.4029 137.358 18.4308 129.475C5.41957 121.569 2.49093 103.788 0.43943 88.6946C-1.34814 75.5434 2.56566 62.775 7.70122 50.5379C12.4394 39.2478 19.6247 29.7405 28.651 21.4718C38.7907 12.1831 49.0812 -1.34747 62.7513 0.108384Z" fill="#D6EEFE"/>
</svg>
