<svg width="139" height="132" viewBox="0 0 139 132" fill="none" xmlns="http://www.w3.org/2000/svg">
<path fill-rule="evenodd" clip-rule="evenodd" d="M138.01 92.9759C140.739 79.402 124.932 69.6109 119.955 56.6872C115.32 44.6507 118.356 30.1149 110.014 20.2747C100.546 9.10733 86.6269 -1.70922 72.1189 0.263854C57.6343 2.23373 51.38 19.3157 41.0525 29.6533C32.666 38.048 23.4438 44.8617 17.3776 55.0586C9.6179 68.1023 -2.32426 81.7264 1.3059 96.4653C4.947 111.249 21.0319 119.374 34.8152 125.857C46.8252 131.506 60.1796 131.601 73.3935 130.371C85.5849 129.236 96.8092 125.233 107.404 119.101C119.306 112.213 135.299 106.453 138.01 92.9759Z" fill="#D6EEFE"/>
</svg>
