<svg width="8" height="8" viewBox="0 0 8 8" fill="none" xmlns="http://www.w3.org/2000/svg">
<path d="M0.645978 0.646039C0.692424 0.599476 0.747599 0.562533 0.808344 0.537326C0.86909 0.51212 0.934211 0.499146 0.999978 0.499146C1.06575 0.499146 1.13087 0.51212 1.19161 0.537326C1.25236 0.562533 1.30753 0.599476 1.35398 0.646039L3.99998 3.29304L6.64598 0.646039C6.69247 0.599551 6.74766 0.562675 6.80839 0.537516C6.86913 0.512357 6.93423 0.499407 6.99998 0.499407C7.06572 0.499407 7.13082 0.512357 7.19156 0.537516C7.2523 0.562675 7.30749 0.599551 7.35398 0.646039C7.40047 0.692527 7.43734 0.747716 7.4625 0.808455C7.48766 0.869195 7.50061 0.934295 7.50061 1.00004C7.50061 1.06578 7.48766 1.13088 7.4625 1.19162C7.43734 1.25236 7.40047 1.30755 7.35398 1.35404L4.70698 4.00004L7.35398 6.64604C7.40047 6.69253 7.43734 6.74772 7.4625 6.80846C7.48766 6.86919 7.50061 6.9343 7.50061 7.00004C7.50061 7.06578 7.48766 7.13088 7.4625 7.19162C7.43734 7.25236 7.40047 7.30755 7.35398 7.35404C7.30749 7.40053 7.2523 7.4374 7.19156 7.46256C7.13082 7.48772 7.06572 7.50067 6.99998 7.50067C6.93423 7.50067 6.86913 7.48772 6.80839 7.46256C6.74766 7.4374 6.69247 7.40053 6.64598 7.35404L3.99998 4.70704L1.35398 7.35404C1.30749 7.40053 1.2523 7.4374 1.19156 7.46256C1.13082 7.48772 1.06572 7.50067 0.999978 7.50067C0.934234 7.50067 0.869134 7.48772 0.808394 7.46256C0.747655 7.4374 0.692466 7.40053 0.645978 7.35404C0.59949 7.30755 0.562614 7.25236 0.537455 7.19162C0.512296 7.13088 0.499346 7.06578 0.499346 7.00004C0.499346 6.9343 0.512296 6.86919 0.537455 6.80846C0.562614 6.74772 0.59949 6.69253 0.645978 6.64604L3.29298 4.00004L0.645978 1.35404C0.599415 1.30759 0.562472 1.25242 0.537265 1.19167C0.512059 1.13093 0.499084 1.06581 0.499084 1.00004C0.499084 0.934272 0.512059 0.869151 0.537265 0.808405C0.562472 0.74766 0.599415 0.692485 0.645978 0.646039Z" fill="#0646C1"/>
</svg>
