<svg width="141" height="79" viewBox="0 0 141 79" fill="none" xmlns="http://www.w3.org/2000/svg">
<g clip-path="url(#clip0_112:401)">
<path d="M138.078 28.1933H117.705L113.938 39.01L102.292 0L87.562 28.1933H77.1908C75.5766 28.1933 74.2683 29.4454 74.2683 30.9903C74.2683 32.5352 75.5766 33.7872 77.1908 33.7872H91.1743L100.799 15.3646L113.508 57.9333L121.918 33.7872H138.078C139.692 33.7872 141 32.5352 141 30.9903C141 29.4454 139.692 28.1933 138.078 28.1933Z" fill="url(#paint0_linear_112:401)"/>
<path d="M-0.0146484 67.3697C-0.0146484 68.2913 0.248766 68.4669 1.17072 68.4669H4.33169C5.34145 68.4669 5.51706 68.2913 5.51706 67.3697V58.5041H8.0634C11.8829 58.5041 14.5171 57.8897 16.4927 56.3097C18.3805 54.8175 19.3463 52.4913 19.3463 49.2874V48.4974C19.3463 45.2936 18.4683 43.0552 16.7561 41.6947C15.0878 40.3341 12.2341 39.6758 8.23901 39.6758C5.12194 39.6758 2.88291 39.7636 1.52194 39.9391C0.336571 40.1147 -0.0146484 40.5097 -0.0146484 41.7824V67.3697ZM5.51706 44.8547C5.51706 44.5036 5.69267 44.2841 5.99999 44.2402C6.57072 44.1963 7.36096 44.1524 8.37072 44.1524C10.6097 44.1524 11.6634 44.4158 12.5414 45.118C13.2878 45.7324 13.6829 46.8736 13.6829 48.4974V49.068C13.6829 52.623 12.2341 53.8958 8.23901 53.8958H5.51706V44.8547ZM24.1231 67.3697C24.1231 68.2913 24.3865 68.4669 25.3085 68.4669H28.4694C29.4792 68.4669 29.6548 68.2913 29.6548 67.3697V64.5169L41.245 50.8674V67.3697C41.245 68.2913 41.4206 68.4669 42.4304 68.4669H45.5914C46.6011 68.4669 46.7767 68.2913 46.7767 67.3697V41.168C46.7767 40.2463 46.6011 40.0708 45.5914 40.0708H42.4304C41.4206 40.0708 41.245 40.2463 41.245 41.168V43.8013L29.6548 57.5386V41.168C29.6548 40.2463 29.4792 40.0708 28.4694 40.0708H25.3085C24.3865 40.0708 24.1231 40.2463 24.1231 41.168V67.3697ZM50.3479 43.538C50.3479 44.4158 50.4357 44.5913 51.4455 44.5913H57.5918V67.3697C57.5918 68.2913 57.7675 68.4669 58.7772 68.4669H61.9382C62.8601 68.4669 63.1236 68.2913 63.1236 67.3697V44.5913H69.2699C70.1918 44.5913 70.3675 44.3719 70.3675 43.538V41.1241C70.3675 40.2902 70.1479 40.0708 69.2699 40.0708H51.4455C50.5675 40.0708 50.3479 40.2902 50.3479 41.1241V43.538ZM73.3714 67.4575C73.3714 68.3791 73.547 68.4669 74.6446 68.4669H77.5861C78.6836 68.4669 78.8592 68.3791 78.8592 67.4575C78.9031 66.3602 78.9031 63.3319 78.9031 58.3724C78.9031 53.3691 78.9031 49.6824 78.947 47.3563H79.1665C81.4934 54.2908 83.469 59.8208 85.1373 63.9463C85.5763 64.9119 85.9714 64.9119 86.9812 64.9119H87.2007H89.2641C90.3617 64.9119 90.9763 65.0436 91.3714 63.9463L97.1665 47.3563H97.3861C97.5178 50.9113 97.5178 55.388 97.4739 61.0497C97.4739 63.8586 97.4739 66.0091 97.5178 67.4575C97.5178 68.3791 97.6934 68.4669 98.7909 68.4669H101.732C102.83 68.4669 103.006 68.3791 103.006 67.4575L102.83 61.0497L102.61 54.0274C102.567 52.3158 102.523 50.2969 102.391 47.9269C102.259 45.513 102.171 43.4063 102.04 41.5191C101.996 40.2463 101.601 40.0708 99.8885 40.0708H96.947C95.147 40.0708 94.8397 40.1586 94.4446 41.3874C92.5568 47.3563 90.5373 53.3252 88.2983 59.2941H88.0788C86.4105 54.598 84.3909 48.6291 82.0202 41.3436C81.669 40.1586 81.3617 40.0708 79.4739 40.0708H76.5324C74.7763 40.0708 74.469 40.2024 74.3373 41.4752C74.2056 43.3186 74.1178 45.4691 73.9861 47.9269C73.8544 50.3408 73.7666 52.3597 73.7227 53.9397L73.547 61.1375L73.3714 67.4575Z" fill="#1A3C7D"/>
</g>
<defs>
<linearGradient id="paint0_linear_112:401" x1="107.634" y1="0" x2="107.634" y2="57.9333" gradientUnits="userSpaceOnUse">
<stop stop-color="#E9CA5D"/>
<stop offset="1" stop-color="#E80E0E"/>
</linearGradient>
<clipPath id="clip0_112:401">
<rect width="141" height="79" fill="white"/>
</clipPath>
</defs>
</svg>
