<svg width="137" height="184" viewBox="0 0 137 184" fill="none" xmlns="http://www.w3.org/2000/svg">
<g clip-path="url(#clip0_119:22)">
<path d="M74.4855 62.6781C92.223 62.6781 106.89 67.7094 118.488 77.772C130.086 87.664 135.884 101.99 135.884 120.751C135.884 140.706 129.574 156.141 116.953 167.056C104.332 177.801 88.4708 183.173 69.369 183.173C52.4842 183.173 37.9873 179.592 25.8781 172.429C13.9394 165.265 5.41174 154.691 0.295166 140.706L45.321 114.867C48.9026 127.317 56.9186 133.543 69.369 133.543C73.9739 133.543 77.6408 132.434 80.3696 130.217C83.269 128 84.7187 124.759 84.7187 120.495C84.7187 112.139 79.6021 107.96 69.369 107.96H10.5283L17.9474 0H125.651V49.6308H64.764L63.7407 62.6781H74.4855Z" fill="#E1F5FF"/>
</g>
<defs>
<clipPath id="clip0_119:22">
<rect width="136.77" height="184" fill="white"/>
</clipPath>
</defs>
</svg>
