<svg width="139" height="184" viewBox="0 0 139 184" fill="none" xmlns="http://www.w3.org/2000/svg">
<g clip-path="url(#clip0_119:24)">
<path d="M84.2464 57.8173C100.961 60.5461 114.178 67.5388 123.9 78.7953C133.792 89.8813 138.738 103.611 138.738 119.984C138.738 138.745 132.428 154.009 119.807 165.777C107.185 177.375 90.4716 183.173 69.6641 183.173C48.6862 183.173 31.8868 177.375 19.2658 165.777C6.8155 154.009 0.590332 138.745 0.590332 119.984C0.590332 106.681 3.83083 95.0831 10.3118 85.191L63.5242 0H120.83L84.2464 57.8173ZM51.7561 119.984C51.7561 131.582 57.7255 137.38 69.6641 137.38C81.6028 137.38 87.5721 131.582 87.5721 119.984C87.5721 108.386 81.6028 102.587 69.6641 102.587C57.7255 102.587 51.7561 108.386 51.7561 119.984Z" fill="#FFEFEE"/>
</g>
<defs>
<clipPath id="clip0_119:24">
<rect width="138.738" height="184" fill="white"/>
</clipPath>
</defs>
</svg>
