<svg width="134" height="184" viewBox="0 0 134 184" fill="none" xmlns="http://www.w3.org/2000/svg">
<g clip-path="url(#clip0_119:18)">
<path d="M4.1326 184V146.649L62.4616 83.4593C63.4849 82.2654 64.9346 80.6451 66.8107 78.5985C68.8573 76.5519 70.2218 75.1022 70.9039 74.2494C71.7567 73.3966 72.78 72.2881 73.9739 70.9237C75.3383 69.3887 76.191 68.1948 76.5322 67.3421C77.0438 66.3187 77.4702 65.2954 77.8113 64.2721C78.323 63.0783 78.5788 61.8843 78.5788 60.6905C78.5788 57.7911 77.5555 55.4034 75.5089 53.5273C73.4622 51.4807 70.4776 50.4573 66.5548 50.4573C57.0039 50.4573 49.926 56.5119 45.3211 68.6212L0.295166 44.0616C6.26451 29.9057 15.0479 19.1609 26.6455 11.8272C38.4137 4.49342 51.4609 0.826538 65.7874 0.826538C83.3542 0.826538 98.3629 5.85784 110.813 15.9204C123.434 25.8125 129.745 39.542 129.745 57.1089C129.745 67.8537 127.357 77.2341 122.581 85.2501C117.976 93.2661 110.643 102.902 100.58 114.159L82.4162 134.369H133.582V184H4.1326Z" fill="#FFEEED"/>
</g>
<defs>
<clipPath id="clip0_119:18">
<rect width="133.818" height="184" fill="white"/>
</clipPath>
</defs>
</svg>
