<svg width="134" height="184" viewBox="0 0 134 184" fill="none" xmlns="http://www.w3.org/2000/svg">
<g clip-path="url(#clip0_267:133)">
<path d="M95.2077 73.1671C106.806 76.5782 116.015 82.5474 122.837 91.0751C129.83 99.4318 133.326 110.006 133.326 122.798C133.326 142.582 127.016 157.591 114.395 167.824C101.774 178.057 85.9125 183.173 66.8107 183.173C51.1198 183.173 37.3904 179.592 25.6222 172.429C13.8541 165.265 5.41174 154.691 0.295166 140.706L45.321 114.867C48.9027 127.317 56.0659 133.543 66.8107 133.543C71.4156 133.543 75.0825 132.349 77.8113 129.961C80.7107 127.573 82.1604 124.333 82.1604 120.24C82.1604 111.712 77.0438 107.448 66.8107 107.448H55.81L35.8554 77.772L59.9033 49.6308H5.9234V0H123.605V39.3977L95.2077 73.1671Z" fill="#FFEFEE"/>
</g>
<defs>
<clipPath id="clip0_267:133">
<rect width="133.818" height="184" fill="white"/>
</clipPath>
</defs>
</svg>
