<svg width="567" height="269" viewBox="0 0 567 269" fill="none" xmlns="http://www.w3.org/2000/svg">
<path fill-rule="evenodd" clip-rule="evenodd" d="M298.862 31.1027C358.062 25.6233 419.426 -7.89666 469.764 2.56453C519.922 12.9884 502.48 51.6103 519.734 77.0042C535.295 99.9066 571.144 118.196 565.801 143.907C559.952 172.054 513.024 192.619 469.764 215C425.131 238.091 385.161 266.801 325.608 268.171C268.613 269.481 240.102 241.975 193.401 230.05C150.041 218.979 93.6779 218.807 62.3143 200.94C24.7061 179.515 -6.99608 152.457 2.72458 121.427C12.8305 89.1667 53.587 53.9507 114.148 35.4793C172.079 17.8098 235.189 36.9961 298.862 31.1027Z" fill="#DAEEFC" fill-opacity="0.76"/>
</svg>
