<svg width="1103" height="723" viewBox="0 0 1103 723" fill="none" xmlns="http://www.w3.org/2000/svg">
<g clip-path="url(#clip0_301:2286)">
<path d="M542 0V5.71L536.54 6C536.71 3.74 536.86 1.88 537 0H542Z" fill="#D6E7F7"/>
<path d="M561 723V717.29L566.46 717.03C566.29 719.29 566.14 721.15 566 723.03L561 723Z" fill="#D6E7F7"/>
<path d="M573 723V717.19L578.42 716.87C578.26 719.24 578.13 721.12 578 723H573Z" fill="#D6E7F7"/>
<path d="M530 0V5.81L524.58 6.13C524.74 3.76 524.87 1.88 525 0H530Z" fill="#D6E7F7"/>
<path d="M537 723C536.83 721.27 536.66 719.55 536.45 717.37L542 717V723H537Z" fill="#D6E7F7"/>
<path d="M525 723C524.88 721.12 524.76 719.23 524.62 717.11H530V723H525Z" fill="#D6E7F7"/>
<path d="M566 0L566.56 5.63L561 6V0H566Z" fill="#D6E7F7"/>
<path d="M578 0L578.38 5.89H573V0H578Z" fill="#D6E7F7"/>
<path d="M1103 376H1097.13V370.59L1103 371V376Z" fill="#D6E7F7"/>
<path d="M0 371L5.76 370.54L6.14 376H0V371Z" fill="#D6E7F7"/>
<path d="M1103 352L1097.25 352.46C1097.12 350.63 1097.01 349.07 1096.86 347H1103V352Z" fill="#D6E7F7"/>
<path d="M0 347H5.87V352.4L0 352V347Z" fill="#D6E7F7"/>
<path d="M554 0V5.62H549V0H554Z" fill="#D6E7F7"/>
<path d="M549 723V717.38H554V723H549Z" fill="#D6E7F7"/>
<path d="M1103 364H1097.38V359H1103V364Z" fill="#D6E7F7"/>
<path d="M0 359H5.62V364H0V359Z" fill="#D6E7F7"/>
<path d="M228.54 648.1L226.16 653.1L221.22 650.8L223.55 645.68L228.54 648.1Z" fill="#D6E7F7"/>
<path d="M876.87 69.6799L881.87 72.4199C880.96 74.0999 880.2 75.5199 879.28 77.2399L874.56 74.8899L876.87 69.6799Z" fill="#D6E7F7"/>
<path d="M517.83 721.75H512.41C512.51 719.89 512.59 718.33 512.68 716.61H517.83V721.75Z" fill="#D6E7F7"/>
<path d="M590.26 716.71C590.37 718.22 590.49 719.79 590.64 721.71L585.64 722.02C584.35 716.28 584.46 716.15 590.26 716.71Z" fill="#D6E7F7"/>
<path d="M493.85 721L488.64 720.49V715.38H493.85V721Z" fill="#D6E7F7"/>
<path d="M512.81 6.41993C512.65 4.89993 512.48 3.32993 512.27 1.34993L517.27 0.929932C518.76 6.43993 518.55 6.70993 512.81 6.41993Z" fill="#D6E7F7"/>
<path d="M585.17 1.25H590.58C590.49 3.11 590.41 4.67 590.32 6.39H585.17V1.25Z" fill="#D6E7F7"/>
<path d="M1090.67 305.86L1089.17 300.6L1094.45 298.97L1096.03 304.34L1090.67 305.86Z" fill="#D6E7F7"/>
<path d="M19.1398 283.18L13.8398 281.31L15.6498 276.01L20.8498 278.01C20.2698 279.74 19.7798 281.23 19.1398 283.18Z" fill="#D6E7F7"/>
<path d="M609.19 2.06006L614.62 2.51006C614.5 4.33006 614.39 5.99006 614.25 8.00006L608.78 7.69006C608.93 5.62006 609.05 3.93006 609.19 2.06006Z" fill="#D6E7F7"/>
<path d="M20.1298 264.85L25.1298 266.98L23.2798 271.98L18.0298 270.14L20.1298 264.85Z" fill="#D6E7F7"/>
<path d="M27.8701 248L30.4901 243.25L35.4401 245.53L32.8701 250.61L27.8701 248Z" fill="#D6E7F7"/>
<path d="M6.93018 418.68L12.2802 417.15L13.8702 422.39L8.59018 424L6.93018 418.68Z" fill="#D6E7F7"/>
<path d="M1090.46 417.2L1096.08 418.52C1095.53 420.45 1095.08 422.09 1094.55 423.92L1089.31 422.57C1089.68 420.83 1090 419.3 1090.46 417.2Z" fill="#D6E7F7"/>
<path d="M1083.85 439.83L1089.16 441.67L1087.36 446.98L1082.17 445.04L1083.85 439.83Z" fill="#D6E7F7"/>
<path d="M1082.87 458.15L1077.87 456.03C1078.51 454.29 1079.06 452.82 1079.72 451.03L1084.98 452.87L1082.87 458.15Z" fill="#D6E7F7"/>
<path d="M734.11 702.34L728.73 703.82C728.24 702 727.79 700.37 727.3 698.53L732.55 696.95L734.11 702.34Z" fill="#D6E7F7"/>
<path d="M1072.57 480L1067.57 477.27L1070.11 472.49L1074.92 474.8C1074.15 476.56 1073.5 478 1072.57 480Z" fill="#D6E7F7"/>
<path d="M370.36 697L375.54 698.45L374.54 703.76L368.87 702.53C369.41 700.52 369.85 698.87 370.36 697Z" fill="#D6E7F7"/>
<path d="M745.88 699.59L740.39 701.16L738.9 695.68L744.27 694.38C744.79 696.06 745.26 697.56 745.88 699.59Z" fill="#D6E7F7"/>
<path d="M362.61 701.18L357.25 699.61C357.67 697.88 358.04 696.34 358.51 694.42L364.08 695.59L362.61 701.18Z" fill="#D6E7F7"/>
<path d="M916.76 97.22L919.44 92.49L924.25 95.25C923.25 96.96 922.39 98.43 921.4 100.14L916.76 97.22Z" fill="#D6E7F7"/>
<path d="M186.39 625.63L183.5 630.54C181.88 629.54 180.5 628.75 178.82 627.73L181.44 622.99L186.39 625.63Z" fill="#D6E7F7"/>
<path d="M217.89 642.78L215.44 647.71L210.44 645.38C211.31 643.6 211.99 642.18 212.84 640.38L217.89 642.78Z" fill="#D6E7F7"/>
<path d="M763.76 695.1C763.2 693.19 762.76 691.67 762.23 689.82L767.33 688.11C767.95 689.82 768.52 691.4 769.28 693.48L763.76 695.1Z" fill="#D6E7F7"/>
<path d="M335.47 688.09L340.62 689.69C340.24 691.38 339.9 692.91 339.43 694.99L333.8 693.58C334.4 691.62 334.9 690 335.47 688.09Z" fill="#D6E7F7"/>
<path d="M887.69 75.05L892.5 77.8L890.19 82.57L885.19 80.26L887.69 75.05Z" fill="#D6E7F7"/>
<path d="M316.23 688.34L310.79 686.56L312.47 681.45L317.63 682.86C317.17 684.64 316.79 686.13 316.23 688.34Z" fill="#D6E7F7"/>
<path d="M370.38 26.13L368.91 20.57L374.27 19.24C374.75 20.94 375.17 22.46 375.7 24.39L370.38 26.13Z" fill="#D6E7F7"/>
<path d="M727.38 24.55C727.8 22.63 728.14 21.07 728.54 19.27L734 20.46C733.59 22.29 733.22 23.94 732.75 25.98L727.38 24.55Z" fill="#D6E7F7"/>
<path d="M362.6 21.79C363.13 23.79 363.6 25.41 364.1 27.32L358.73 28.62L357.15 23.51L362.6 21.79Z" fill="#D6E7F7"/>
<path d="M745.81 23.3599C745.32 25.2199 744.92 26.7699 744.45 28.5399L739 27.4799C739.46 25.5699 739.87 23.9199 740.36 21.8799L745.81 23.3599Z" fill="#D6E7F7"/>
<path d="M12.49 305.9L7 304.34L8.42 299.09L13.75 300.48C13.33 302.33 13 303.88 12.49 305.9Z" fill="#D6E7F7"/>
<path d="M871.09 67.0899C870.17 68.9199 869.44 70.3399 868.55 72.0899L863.72 69.7799C864.44 68.0599 865.04 66.6199 865.86 64.6799L871.09 67.0899Z" fill="#D6E7F7"/>
<path d="M335.53 34.8701C334.97 33.0901 334.53 31.5701 333.85 29.6001L339.21 27.8701C339.77 29.7601 340.21 31.2701 340.79 33.2201L335.53 34.8701Z" fill="#D6E7F7"/>
<path d="M763.62 27.8799L769.07 29.5199C768.59 31.2699 768.16 32.7999 767.63 34.7099L762.33 33.3999C762.76 31.5499 763.12 29.9999 763.62 27.8799Z" fill="#D6E7F7"/>
<path d="M852.54 65.0001L855 59.8501L860 62.0001L857.86 67.0001L852.54 65.0001Z" fill="#D6E7F7"/>
<path d="M844 55.26L848.81 57.09L847.19 61.66C841.26 61 841.13 60.7 844 55.26Z" fill="#D6E7F7"/>
<path d="M234.45 650.8L239.35 653.37L237.06 658.22L232 656L234.45 650.8Z" fill="#D6E7F7"/>
<path d="M785.22 40L786.9 34.74L792.12 36.3L790.61 41.54L785.22 40Z" fill="#D6E7F7"/>
<path d="M245.25 655.85L250.25 658.03C249.6 659.72 249 661.28 248.25 663.17L243.12 661.06C243.83 659.3 244.42 657.86 245.25 655.85Z" fill="#D6E7F7"/>
<path d="M261.34 662.62L259.34 667.86L254.23 665.86L256 660.7L261.34 662.62Z" fill="#D6E7F7"/>
<path d="M849.1 665.75L843.68 667.85C843.01 666.15 842.42 664.69 841.68 662.85L846.5 660.61C847.41 662.38 848.12 663.81 849.1 665.75Z" fill="#D6E7F7"/>
<path d="M813.23 49.3501L808.1 47.5301C808.61 45.9001 809.1 44.4101 809.72 42.3401L815.07 44.0401C814.43 45.8901 813.91 47.3701 813.23 49.3501Z" fill="#D6E7F7"/>
<path d="M868.6 650.86C869.46 652.72 870.14 654.16 870.95 655.86L866.07 658.23C865.23 656.62 864.51 655.23 863.54 653.35L868.6 650.86Z" fill="#D6E7F7"/>
<path d="M824.58 53.3899L819.3 51.6299C819.97 49.8499 820.56 48.2899 821.3 46.3999L826.36 48.3199C825.72 50.1199 825.2 51.5899 824.58 53.3899Z" fill="#D6E7F7"/>
<path d="M270.45 672.5L265.45 670.27L267.32 665.27L272.46 667.07L270.45 672.5Z" fill="#D6E7F7"/>
<path d="M835.58 57.9099L830.58 55.7399L832.53 50.6899L837.66 52.5999L835.58 57.9099Z" fill="#D6E7F7"/>
<path d="M259.32 54.9399C260.04 56.9399 260.59 58.3899 261.27 60.2199L256.4 62.3299L254 57.4199L259.32 54.9399Z" fill="#D6E7F7"/>
<path d="M780.72 32.86L779.13 38.06L773.84 36.64L775.38 31.23L780.72 32.86Z" fill="#D6E7F7"/>
<path d="M876.8 653.26C875.89 651.36 875.26 650.06 874.45 648.38L879.29 645.77L881.98 650.71L876.8 653.26Z" fill="#D6E7F7"/>
<path d="M281.74 676.53L276.69 674.76L278.4 669.58L283.75 671.45C283 673.26 282.45 674.73 281.74 676.53Z" fill="#D6E7F7"/>
<path d="M234.4 72.13L232.05 67.13L236.93 64.75L239.46 69.64L234.4 72.13Z" fill="#D6E7F7"/>
<path d="M752.21 24.72L757.29 26.44C756.9 28.17 756.56 29.69 756.14 31.59L750.9 30.41L752.21 24.72Z" fill="#D6E7F7"/>
<path d="M226.15 69.7C227.08 71.58 227.71 72.87 228.56 74.58L223.76 77.23L221 72.31L226.15 69.7Z" fill="#D6E7F7"/>
<path d="M289.72 673.68L295.01 675.51L293.19 680.58L287.85 679C288.5 677.15 289.06 675.57 289.72 673.68Z" fill="#D6E7F7"/>
<path d="M327.7 691.75L322.35 690.28C322.81 688.5 323.22 686.88 323.73 684.84L329.13 686.39C328.65 688.17 328.24 689.7 327.7 691.75Z" fill="#D6E7F7"/>
<path d="M697.51 18.8399L692 17.5399L693.17 12.1499L698.41 13.3499L697.51 18.8399Z" fill="#D6E7F7"/>
<path d="M914 633.65L909.23 636.51C908.23 634.86 907.35 633.41 906.35 631.77L911.02 628.92L914 633.65Z" fill="#D6E7F7"/>
<path d="M196.76 91.27L192.06 94.09L189 89.37L193.86 86.53L196.76 91.27Z" fill="#D6E7F7"/>
<path d="M409.91 12C410.34 14.22 410.65 15.78 411.02 17.66L405.61 18.66L404.45 13.47L409.91 12Z" fill="#D6E7F7"/>
<path d="M345.71 696.62L346.78 691.62L352.18 692.53L350.93 698.21L345.71 696.62Z" fill="#D6E7F7"/>
<path d="M944.69 614.69L940.2 617.79L936.89 613.28L941.54 610.11L944.69 614.69Z" fill="#D6E7F7"/>
<path d="M163.05 617.86L158.19 614.8L161.24 610.16L166.08 613.02L163.05 617.86Z" fill="#D6E7F7"/>
<path d="M951.54 603.29C952.74 605.12 953.54 606.34 954.54 607.82L950.27 611.18L946.89 606.51L951.54 603.29Z" fill="#D6E7F7"/>
<path d="M158.26 108.32L162.86 105.26C163.94 106.73 164.86 108.01 166.07 109.66L161.52 112.9L158.26 108.32Z" fill="#D6E7F7"/>
<path d="M940 105.14L944.86 108.2L941.86 112.84L936.92 110L940 105.14Z" fill="#D6E7F7"/>
<path d="M148.28 115.22L152.74 111.9L156.13 116.44L151.65 119.62L148.28 115.22Z" fill="#D6E7F7"/>
<path d="M951.43 119.7L946.93 116.47L950 112L954.6 115.09C953.52 116.66 952.56 118.06 951.43 119.7Z" fill="#D6E7F7"/>
<path d="M153.06 611.14L148.43 608L151.35 603.47L156.07 606.38L153.06 611.14Z" fill="#D6E7F7"/>
<path d="M970.62 589.05L974.04 593.48L969.8 597L966.27 592.65L970.62 589.05Z" fill="#D6E7F7"/>
<path d="M133.38 125.93L136.67 130.47L132.44 133.86L128.88 129.53L133.38 125.93Z" fill="#D6E7F7"/>
<path d="M974.15 129.41L970.71 133.81L966.34 130.63L969.53 126.04L974.15 129.41Z" fill="#D6E7F7"/>
<path d="M128.82 593.57L132.41 589.14L136.62 592.46L133.54 596.92L128.82 593.57Z" fill="#D6E7F7"/>
<path d="M1042 517.36L1045.35 512.96L1049.92 516.07L1046.7 520.61L1042 517.36Z" fill="#D6E7F7"/>
<path d="M57.6299 512.78L60.8699 517.33C59.4199 518.46 58.1299 519.45 56.5299 520.68L53.1099 516.25L57.6299 512.78Z" fill="#D6E7F7"/>
<path d="M1053.63 510.93L1049.11 507.71L1052.11 503.17L1056.86 506.17C1055.68 507.9 1054.7 509.34 1053.63 510.93Z" fill="#D6E7F7"/>
<path d="M46.1899 506.29L50.7699 503.06L53.9999 507.59L49.4799 510.9L46.1899 506.29Z" fill="#D6E7F7"/>
<path d="M1063.36 496C1062.18 497.84 1061.36 499.07 1060.36 500.72L1055.68 497.91L1058.42 493.13L1063.36 496Z" fill="#D6E7F7"/>
<path d="M44.5102 493.12L47.2902 497.82L42.7702 500.82L39.6802 496.21L44.5102 493.12Z" fill="#D6E7F7"/>
<path d="M1069.44 485.63L1066.59 490.37L1061.87 487.82L1064.36 483.03L1069.44 485.63Z" fill="#D6E7F7"/>
<path d="M38.3302 482.82C39.4002 484.56 40.1602 485.82 41.2202 487.55L36.4902 490.55L33.7202 485.86L38.3302 482.82Z" fill="#D6E7F7"/>
<path d="M661.89 13.05L656.7 12.46C656.82 10.67 656.93 9.12004 657.06 7.04004L662.7 7.41004C662.41 9.41004 662.19 11 661.89 13.05Z" fill="#D6E7F7"/>
<path d="M405.47 704.27L411.14 705.46C410.65 707.46 410.24 709.1 409.77 710.96L404.6 709.57L405.47 704.27Z" fill="#D6E7F7"/>
<path d="M698.64 709.62L693.19 710.78C692.73 708.94 692.35 707.38 691.89 705.52L697.3 704.25C697.73 706 698.11 707.48 698.64 709.62Z" fill="#D6E7F7"/>
<path d="M1085.85 434C1086.48 431.94 1086.9 430.55 1087.46 428.74L1092.72 430.12L1091.35 435.3L1085.85 434Z" fill="#D6E7F7"/>
<path d="M445.84 716L440.34 715.52C440.59 713.63 440.8 712.09 441.06 710.12L446.38 710.36C446.19 712.39 446 714 445.84 716Z" fill="#D6E7F7"/>
<path d="M476.2 719.55C476.45 717.49 476.63 715.91 476.83 714.29H481.83V719.81L476.2 719.55Z" fill="#D6E7F7"/>
<path d="M2.58984 394.82L7.83984 394.07C8.23984 395.87 8.58984 397.42 9.01984 399.38L3.48984 400.26L2.58984 394.82Z" fill="#D6E7F7"/>
<path d="M53.1001 206.89L56.3701 202.37C57.9301 203.47 59.3701 204.47 60.9301 205.6C59.8101 207.16 58.9301 208.48 57.7201 210.11L53.1001 206.89Z" fill="#D6E7F7"/>
<path d="M1045.38 210.23L1042.12 205.69L1046.46 202.31L1049.89 206.74L1045.38 210.23Z" fill="#D6E7F7"/>
<path d="M54.0002 215.34L50.8802 219.74L46.1602 216.87L49.3202 212.07L54.0002 215.34Z" fill="#D6E7F7"/>
<path d="M1056.82 216.68L1052.27 219.93L1049.02 215.44L1053.49 212.11C1054.62 213.65 1055.64 215.06 1056.82 216.68Z" fill="#D6E7F7"/>
<path d="M39.6401 227L42.6401 222.27L47.3201 225.08L44.5901 229.86L39.6401 227Z" fill="#D6E7F7"/>
<path d="M1055.57 225.2L1060.25 222.2C1061.25 223.77 1062.19 225.2 1063.25 226.85L1058.58 229.85L1055.57 225.2Z" fill="#D6E7F7"/>
<path d="M1069.36 237.28L1064.73 240.02L1061.73 235.49L1066.56 232.42L1069.36 237.28Z" fill="#D6E7F7"/>
<path d="M38.4999 240L33.6299 237.34L36.4599 232.51L41.1699 235.26L38.4999 240Z" fill="#D6E7F7"/>
<path d="M621.23 3.05005L626.76 3.53005C626.55 5.53005 626.38 7.05005 626.19 8.73005H621.19L621.23 3.05005Z" fill="#D6E7F7"/>
<path d="M1.5902 388.26L1.2002 382.91L6.6202 382.19L7.1502 387.69L1.5902 388.26Z" fill="#D6E7F7"/>
<path d="M1095.81 335.64C1100.42 333.96 1102.37 335.07 1101.58 339.99L1096.49 340.92C1096.25 339.06 1096.05 337.49 1095.81 335.64Z" fill="#D6E7F7"/>
<path d="M482.24 8.69H476.88L476.17 3.57L481.71 3C481.88 4.89 482 6.49 482.24 8.69Z" fill="#D6E7F7"/>
<path d="M1094 323.5L1099.66 322.84C1099.9 324.68 1100.1 326.24 1100.33 328.04L1095.24 329.11L1094 323.5Z" fill="#D6E7F7"/>
<path d="M488.14 2.5399L493.82 2.1499C493.95 4.0799 494.05 5.6799 494.18 7.6899L488.9 7.9999C488.64 6.1499 488.44 4.7099 488.14 2.5399Z" fill="#D6E7F7"/>
<path d="M626.07 714C626.35 716 626.55 717.42 626.84 719.45L621.2 720.01C621.08 718.01 620.99 716.4 620.88 714.51L626.07 714Z" fill="#D6E7F7"/>
<path d="M17.0001 289.1C16.4801 290.93 16.0801 292.31 15.5301 294.24L10.1401 292.77L11.6201 287.67L17.0001 289.1Z" fill="#D6E7F7"/>
<path d="M614.16 715C614.39 717 614.56 718.44 614.77 720.3L609.19 720.99C609.07 718.99 608.98 717.3 608.86 715.26L614.16 715Z" fill="#D6E7F7"/>
<path d="M1087.36 276C1087.98 277.92 1088.48 279.45 1089.08 281.29L1083.97 283.14C1083.31 281.39 1082.76 279.92 1082.07 278.05L1087.36 276Z" fill="#D6E7F7"/>
<path d="M6.09994 310.9L10.9999 312C10.4999 314.62 11.2099 317.92 7.23994 316.71C5.96994 316.32 5.34994 313.79 4.43994 312.24L6.09994 310.9Z" fill="#D6E7F7"/>
<path d="M8.15003 328.6C2.67003 329.3 2.25003 326.88 3.53003 322.95L8.72003 323.24L8.15003 328.6Z" fill="#D6E7F7"/>
<path d="M1.70014 335.11H6.70014V340.77L1.14014 340.1L1.70014 335.11Z" fill="#D6E7F7"/>
<path d="M1075.24 261.2C1074.39 259.39 1073.73 257.97 1072.94 256.3L1077.78 253.81L1080.29 258.81L1075.24 261.2Z" fill="#D6E7F7"/>
<path d="M597.09 721.75V716.26L601.94 715.77C602.23 717.52 602.48 719.03 602.81 720.99L597.09 721.75Z" fill="#D6E7F7"/>
<path d="M22.73 258.8L25.17 253.9L30.07 256.06L28 261.23L22.73 258.8Z" fill="#D6E7F7"/>
<path d="M505.77 722L500.67 721C499.67 716.09 501.81 715.32 506.09 716.44C506 718.14 505.89 719.81 505.77 722Z" fill="#D6E7F7"/>
<path d="M506.13 6.82989L501.03 7.11989C500.75 5.49989 500.5 4.11989 500.17 2.19989L505.74 1.13989L506.13 6.82989Z" fill="#D6E7F7"/>
<path d="M1067.47 245.72L1072.3 242.97C1073.21 244.57 1074.06 246.04 1075.07 247.82L1070.22 250.52C1069.32 248.93 1068.54 247.58 1067.47 245.72Z" fill="#D6E7F7"/>
<path d="M1096.29 382L1101.54 382.94C1102.36 387.53 1100.71 389.02 1096.02 387.43C1096.1 385.85 1096.18 384.15 1096.29 382Z" fill="#D6E7F7"/>
<path d="M1034.86 196.42C1035.74 195.59 1036.31 195 1036.94 194.49C1037.57 193.98 1038.25 193.57 1039.16 192.94L1042.53 197.05L1038.39 200.73C1037.12 199.18 1036 197.86 1034.86 196.42Z" fill="#D6E7F7"/>
<path d="M1099.21 400.19L1094.08 399.53C1094.4 397.64 1094.67 396.06 1094.93 394.53C1100.6 394.36 1100.74 394.54 1099.21 400.19Z" fill="#D6E7F7"/>
<path d="M596.85 7.21004C596.99 4.87004 597.09 3.32004 597.23 1.04004C599.23 1.62004 601.04 1.77004 602.23 2.68004C602.77 3.08004 602.59 5.78004 601.97 6.15004C600.72 6.93004 598.91 6.86004 596.85 7.21004Z" fill="#D6E7F7"/>
<path d="M1097.51 412.4C1095.45 411.66 1093.66 411.4 1092.44 410.4C1091.96 410.01 1092.37 407.33 1093.07 406.96C1094.37 406.25 1096.17 406.46 1098.3 406.22C1098 408.58 1097.8 410.13 1097.51 412.4Z" fill="#D6E7F7"/>
<path d="M63.6598 192.7L68.1498 196.24L64.8698 200.6C63.3898 199.5 62.1298 198.6 60.5498 197.42L63.6598 192.7Z" fill="#D6E7F7"/>
<path d="M464.93 10.07C464.63 8 464.45 6.72 464.19 4.9L469.73 4C469.93 6.06 470.08 7.66 470.27 9.67L464.93 10.07Z" fill="#D6E7F7"/>
<path d="M633.21 719L632.77 713.37L637.97 712.84C638.26 714.69 638.51 716.23 638.82 718.14L633.21 719Z" fill="#D6E7F7"/>
<path d="M469.93 719L464.18 718.17C464.49 716.26 464.73 714.72 465.01 712.97L469.93 713.22V719Z" fill="#D6E7F7"/>
<path d="M19.0002 439.79L20.8602 444.92L15.8602 447L13.7202 441.91L19.0002 439.79Z" fill="#D6E7F7"/>
<path d="M645.22 717.82C645.02 715.61 644.89 714.04 644.73 712.26L649.66 711.36C650.09 712.99 650.49 714.5 651.04 716.56L645.22 717.82Z" fill="#D6E7F7"/>
<path d="M452 716.86C452.49 714.7 452.84 713.15 453.23 711.41L458.01 712.12V717.59L452 716.86Z" fill="#D6E7F7"/>
<path d="M656.48 710.47L661.79 710.08C662.11 711.91 662.39 713.47 662.79 715.45L657.35 716.08C657 714.22 656.8 712.66 656.48 710.47Z" fill="#D6E7F7"/>
<path d="M30.2601 466.78L25.0001 469.1L22.8101 464.16L27.6101 461.82L30.2601 466.78Z" fill="#D6E7F7"/>
<path d="M1075.19 461.69L1080.06 464.14L1078.06 469.14L1072.84 466.92C1073.67 465.07 1074.31 463.64 1075.19 461.69Z" fill="#D6E7F7"/>
<path d="M632.77 9.69993C632.92 7.69993 633.02 6.19993 633.17 4.17993L638.71 4.69993C638.51 6.57993 638.35 7.99993 638.16 9.69993H632.77Z" fill="#D6E7F7"/>
<path d="M32.8902 472.42L35.3202 477.17L30.7402 480.11L27.9302 475.18L32.8902 472.42Z" fill="#D6E7F7"/>
<path d="M668.16 709.28L673.59 708.06C674 709.88 674.38 711.56 674.82 713.53L669.48 714.53C669 712.81 668.65 711.25 668.16 709.28Z" fill="#D6E7F7"/>
<path d="M433.73 714.49L428.29 713.67C428.63 711.8 428.93 710.14 429.29 708.16L434.64 709.16C434.32 711 434 712.65 433.73 714.49Z" fill="#D6E7F7"/>
<path d="M685.65 706.24C685.99 708.36 686.23 709.82 686.52 711.59L681.43 712.89L680 707.52L685.65 706.24Z" fill="#D6E7F7"/>
<path d="M993.6 152.73L997.39 149.13L1001.66 152.77L997.6 157.33L993.6 152.73Z" fill="#D6E7F7"/>
<path d="M100.92 152.91L105.41 148.52L109.08 153.1L105.08 157.33L100.92 152.91Z" fill="#D6E7F7"/>
<path d="M416.36 711.73C416.79 709.67 417.12 708.11 417.49 706.38L422.85 707.32C422.49 709.2 422.17 710.86 421.79 712.81L416.36 711.73Z" fill="#D6E7F7"/>
<path d="M110.38 144.89L114.5 141.19L118.26 145.42L113.93 148.82L110.38 144.89Z" fill="#D6E7F7"/>
<path d="M975.55 138L979.08 133.57L983.34 136.87L980.23 141.32C978.69 140.2 977.41 139.3 975.55 138Z" fill="#D6E7F7"/>
<path d="M60.3501 525.9L64.6301 522.36L68.2201 526.63L64.0001 530.13L60.3501 525.9Z" fill="#D6E7F7"/>
<path d="M1038.25 522.25L1042.47 525.81L1039.24 530.15L1034.82 526.94L1038.25 522.25Z" fill="#D6E7F7"/>
<path d="M458.37 10.71L453.27 11.66C452.86 9.88998 452.48 8.25998 452.04 6.34998L457.66 5.22998C457.9 7.10998 458.12 8.79998 458.37 10.71Z" fill="#D6E7F7"/>
<path d="M649.9 11.6001L644.73 10.8401C644.9 9.0301 645.06 7.3401 645.25 5.3501L650.83 6.1901C650.51 8.0801 650.22 9.7401 649.9 11.6001Z" fill="#D6E7F7"/>
<path d="M722.45 705.4L716.16 706.05C716.36 703.99 716.16 702.18 716.84 700.82C717.16 700.16 719.84 699.77 720.3 700.29C721.32 701.44 721.61 703.23 722.45 705.4Z" fill="#D6E7F7"/>
<path d="M384.76 706.8L381.17 702.8L384.79 700.19C385.677 701.763 386.57 703.333 387.47 704.9L384.76 706.8Z" fill="#D6E7F7"/>
<path d="M441.11 12.9999C440.81 10.9999 440.59 9.5499 440.31 7.6599L445.61 6.8999C445.93 8.7099 446.19 10.2599 446.61 12.4399L441.11 12.9999Z" fill="#D6E7F7"/>
<path d="M434.89 13.7799L429.31 14.8499C428.93 12.9699 428.61 11.3899 428.22 9.47993L433.49 8.42993L434.89 13.7799Z" fill="#D6E7F7"/>
<path d="M668.25 13.8099C668.62 11.8899 668.89 10.4699 669.25 8.62988L674.76 9.24988C674.39 11.2499 674.08 12.8999 673.76 14.8699L668.25 13.8099Z" fill="#D6E7F7"/>
<path d="M417.35 16.7101C417.01 14.7101 416.77 13.2101 416.48 11.4301L421.69 10.0701L423 15.6401L417.35 16.7101Z" fill="#D6E7F7"/>
<path d="M109.25 569.79L105.52 573.79L101.36 570.12L105.09 566.04L109.25 569.79Z" fill="#D6E7F7"/>
<path d="M993.52 570L997.92 566.1L1001.84 570.4L997.59 574.4L993.52 570Z" fill="#D6E7F7"/>
<path d="M757.43 696.71L752.16 698.17C751.68 696.33 751.25 694.7 750.72 692.7L756.08 691.49C756.54 693.28 756.93 694.8 757.43 696.71Z" fill="#D6E7F7"/>
<path d="M984.81 577.67L988.91 574L992.63 578.11L988.5 581.81L984.81 577.67Z" fill="#D6E7F7"/>
<path d="M119.44 586.12L123.01 581.72L127.25 585.06L124.1 589.45L119.44 586.12Z" fill="#D6E7F7"/>
<path d="M979.93 581.61L983.46 585.89L979.21 589.51L975.68 585.28L979.93 581.61Z" fill="#D6E7F7"/>
<path d="M127.44 137.75L123.1 141.3L119.5 137.05L123.75 133.56L127.44 137.75Z" fill="#D6E7F7"/>
<path d="M961.26 126.62L956.68 123.41L959.81 118.84C961.46 119.99 962.81 120.91 964.37 122.05L961.26 126.62Z" fill="#D6E7F7"/>
<path d="M143.1 604.2L138.57 600.9L141.83 596.43L146.26 599.63C145.18 601.2 144.27 602.52 143.1 604.2Z" fill="#D6E7F7"/>
<path d="M956.58 599.65L960.95 596.56L964.55 600.62L960 604.17L956.58 599.65Z" fill="#D6E7F7"/>
<path d="M138.6 122.26L142.97 118.81L146.4 123.38L141.84 126.5C140.71 125 139.75 123.77 138.6 122.26Z" fill="#D6E7F7"/>
<path d="M929.87 98.6699L934.36 101.67L931.79 106.4L926.89 103.52L929.87 98.6699Z" fill="#D6E7F7"/>
<path d="M171.37 106.39L168.56 101.85L172.93 98.6699L176.17 103.41L171.37 106.39Z" fill="#D6E7F7"/>
<path d="M181.63 100.15L178.73 95.4099L183.53 92.4099C184.53 94.1199 185.31 95.4899 186.27 97.1499L181.63 100.15Z" fill="#D6E7F7"/>
<path d="M176.16 619.62L173.16 624.18L168.46 621.38L171.46 616.59L176.16 619.62Z" fill="#D6E7F7"/>
<path d="M926.76 619.53L931.64 616.69L934.52 621.25L930 624.25L926.76 619.53Z" fill="#D6E7F7"/>
<path d="M911.2 94.1999L906.5 91.3499L908.78 86.6499L913.85 88.9399L911.2 94.1999Z" fill="#D6E7F7"/>
<path d="M921.37 622.78L924.25 627.68L919.54 630.48L916.7 625.91L921.37 622.78Z" fill="#D6E7F7"/>
<path d="M194 636.4L189.18 634L191.68 629L196.68 631.7L194 636.4Z" fill="#D6E7F7"/>
<path d="M895.82 85.6101L898.25 80.8301L903.25 83.1701L900.7 88.3301L895.82 85.6101Z" fill="#D6E7F7"/>
<path d="M207.18 637.39L204.75 642.17L199.75 639.83L202.3 634.67L207.18 637.39Z" fill="#D6E7F7"/>
<path d="M898.54 642.44L895.84 637.56L900.37 634.79L903.37 639.36L898.54 642.44Z" fill="#D6E7F7"/>
<path d="M204.39 80.6299C205.39 82.3699 206.23 83.7499 207.21 85.4299L202.6 88.1999L199.6 83.5799L204.39 80.6299Z" fill="#D6E7F7"/>
<path d="M887.54 647.55L885.24 642.99L889.54 640.68C893.34 645.2 893.24 645.54 887.54 647.55Z" fill="#D6E7F7"/>
<path d="M217.93 80L212.93 82.46L210.44 77.75L215.14 75.01C216 76.66 216.79 78 217.93 80Z" fill="#D6E7F7"/>
<path d="M243 62.0501L248 59.8301L250.34 64.7101L245.34 67.1901L243 62.0501Z" fill="#D6E7F7"/>
<path d="M679.93 15.6399C680.5 13.4499 680.93 11.9099 681.37 10.1499L686.46 11.3099L685.68 16.5499L679.93 15.6399Z" fill="#D6E7F7"/>
<path d="M276.32 48.3501L281.7 46.3501C282.41 48.1401 283.03 49.6601 283.75 51.4501L278.75 53.3901L276.32 48.3501Z" fill="#D6E7F7"/>
<path d="M287.59 44.23L293 42.3L295 47.3L290.1 49.3L287.59 44.23Z" fill="#D6E7F7"/>
<path d="M854.89 663.37L852.77 658.09L857.64 655.94L859.95 660.83L854.89 663.37Z" fill="#D6E7F7"/>
<path d="M780.7 690.1L775.46 691.8L773.76 686.74L778.98 684.67L780.7 690.1Z" fill="#D6E7F7"/>
<path d="M380 17.8701L386.86 16.8101C386.64 19.0201 386.77 20.8101 386.18 22.2101C385.95 22.7901 383.62 23.2801 383.13 22.8401C382 21.8101 381.38 20.1801 380 17.8701Z" fill="#D6E7F7"/>
<path d="M317.35 40.12L312.59 41.63C311.97 39.93 311.4 38.34 310.84 36.77C314.82 34.17 317.2 34.45 317.35 40.12Z" fill="#D6E7F7"/>
<path d="M785.59 682.87L790.45 681.37L792.14 686.23C788 689 785.84 688.31 785.59 682.87Z" fill="#D6E7F7"/>
<path d="M329.26 36.4399L323.91 38.1799C323.36 36.3499 322.91 34.8499 322.32 32.9499L327.5 31.1599L329.26 36.4399Z" fill="#D6E7F7"/>
<path d="M826.57 674.74L821.33 676.61C820.61 674.84 819.95 673.19 819.23 671.41L824.43 669.6C825.12 671.27 825.74 672.74 826.57 674.74Z" fill="#D6E7F7"/>
<path d="M352.33 30.3299L347 31.5599C346.5 29.7999 346.08 28.2899 345.57 26.4899L350.75 24.6899L352.33 30.3299Z" fill="#D6E7F7"/>
<path d="M807.89 675.58L813.03 673.76L815.21 678.66L810.07 680.81L807.89 675.58Z" fill="#D6E7F7"/>
<path d="M715.81 22.81C716.11 20.39 716.29 18.81 716.58 16.52C718.66 17.28 720.46 17.52 721.58 18.52C722.09 18.96 721.72 21.62 721.05 22C719.8 22.75 718 22.55 715.81 22.81Z" fill="#D6E7F7"/>
<path d="M803.51 682.93L798.45 684.52C797.85 682.79 797.32 681.3 796.79 679.79C800.73 676.87 803 677.49 803.51 682.93Z" fill="#D6E7F7"/>
<path d="M304.8 684.65L299.25 682.79C299.85 681.04 300.34 679.57 300.93 677.79L306.11 678.95C305.68 680.84 305.31 682.46 304.8 684.65Z" fill="#D6E7F7"/>
<path d="M837.63 670.44L832.46 672.33L830.64 667.33L835.64 665.1C836.32 667 836.93 668.59 837.63 670.44Z" fill="#D6E7F7"/>
<path d="M306.18 43.2799C302.08 46.2799 299.99 45.2799 299.52 40.1399L304.6 38.4399C305.21 40.3199 305.71 41.8399 306.18 43.2799Z" fill="#D6E7F7"/>
<path d="M796.65 43.76C797.3 41.76 797.75 40.33 798.32 38.52L803.76 40.16C803.16 41.95 802.67 43.43 802.03 45.3L796.65 43.76Z" fill="#D6E7F7"/>
<path d="M703.82 19.8301C704.21 17.8301 704.48 16.4001 704.82 14.5601L710.07 15.3401C709.87 17.1901 709.7 18.7701 709.47 20.8501L703.82 19.8301Z" fill="#D6E7F7"/>
<path d="M392.66 15.39L398.1 14.5L399.1 19.65L393.84 21.08C393.48 19.21 393.13 17.56 392.66 15.39Z" fill="#D6E7F7"/>
<path d="M270.68 50.5701L272.24 55.7601L267.41 57.8301C266.71 56.1001 266.11 54.6401 265.32 52.7101L270.68 50.5701Z" fill="#D6E7F7"/>
<path d="M114.59 581.9L110.4 578.24L114 574L118.15 577.58L114.59 581.9Z" fill="#D6E7F7"/>
<path d="M1010.72 561.63L1006.88 565.85L1002.57 561.96L1006.66 557.53L1010.72 561.63Z" fill="#D6E7F7"/>
<path d="M96.6 557.5L100.3 561.71L96.2 566.17L93 561.54C93.9 560.51 95 559.33 96.6 557.5Z" fill="#D6E7F7"/>
<path d="M1019.13 553.21L1015 557.09L1010.67 553.03L1014.85 549.48L1019.13 553.21Z" fill="#D6E7F7"/>
<path d="M91.8998 553.51L87.9998 557.08L84.0698 553.39L88.2798 548.91L91.8998 553.51Z" fill="#D6E7F7"/>
<path d="M1018.92 544.51L1022.92 540.72L1027.09 544.23L1023.45 548.41L1018.92 544.51Z" fill="#D6E7F7"/>
<path d="M79.92 540.28L83.92 544.54C82.48 545.85 81.2 547.03 79.58 548.54L75.27 544.46L79.92 540.28Z" fill="#D6E7F7"/>
<path d="M398.24 708.63L392.88 707.63C393.1 705.77 393.29 704.19 393.54 702.13L399 703.13L398.24 708.63Z" fill="#D6E7F7"/>
<path d="M709.35 701.77C709.68 704.08 709.91 705.65 710.19 707.55L705.14 708.55L703.74 703.55L709.35 701.77Z" fill="#D6E7F7"/>
<path d="M1031.41 539.53L1027.17 535.67L1030.73 531.76L1035 535L1031.41 539.53Z" fill="#D6E7F7"/>
<path d="M68 535.26L72.43 531.53L75.77 535.69L71.77 539.42L68 535.26Z" fill="#D6E7F7"/>
<path d="M988.85 140.7L992.75 144.58L989.05 149L984.85 145.5L988.85 140.7Z" fill="#D6E7F7"/>
<path d="M96.4602 157.14L100.58 161.52L96.3202 165.52L92.7002 161.24L96.4602 157.14Z" fill="#D6E7F7"/>
<path d="M1006.51 157.2L1010.51 160.86L1006.69 165.2L1002.55 161.34L1006.51 157.2Z" fill="#D6E7F7"/>
<path d="M88 165.57L92.24 169.63L88.33 173.82L84.04 169.89L88 165.57Z" fill="#D6E7F7"/>
<path d="M1014.66 173.53C1013.37 172.31 1012.29 171.3 1010.98 170.05C1012.33 168.55 1013.38 167.37 1014.81 165.79L1019.35 170.02L1014.66 173.53Z" fill="#D6E7F7"/>
<path d="M79.8202 182.31L75.9302 178.73L79.6102 174.55L83.8902 178.46C82.4202 179.84 81.1702 181 79.8202 182.31Z" fill="#D6E7F7"/>
<path d="M25.3299 455.82L20.3299 458.15C19.4999 456.45 18.7999 455.02 17.9399 453.24L23.0599 450.82C23.8299 452.46 24.4999 454 25.3299 455.82Z" fill="#D6E7F7"/>
<path d="M1027.45 178.33L1023.17 182.33C1021.81 181.08 1020.66 180 1018.97 178.43L1023.42 174.35L1027.45 178.33Z" fill="#D6E7F7"/>
<path d="M75.87 187.21L72.27 191.32L68 187.81L71.56 183.61L75.87 187.21Z" fill="#D6E7F7"/>
<path d="M15.3002 428.72L17.1902 433.67L11.8302 435.48C11.2302 433.48 10.7602 432.03 10.2002 430.2L15.3002 428.72Z" fill="#D6E7F7"/>
<path d="M1030.71 191.36L1027.21 187.36L1031.21 183.62L1034.98 187.78L1030.71 191.36Z" fill="#D6E7F7"/>
<path d="M11.6598 410.83L5.36976 412.26C5.36976 410.09 4.99976 408.31 5.53976 406.88C5.77976 406.24 8.31976 405.67 8.99976 406.17C10.0998 407 10.5298 408.71 11.6598 410.83Z" fill="#D6E7F7"/>
<path d="M1091.35 312.17L1097.63 310.74C1097.63 312.91 1098 314.69 1097.46 316.12C1097.22 316.76 1094.68 317.33 1094 316.83C1092.9 316 1092.47 314.29 1091.35 312.17Z" fill="#D6E7F7"/>
<path d="M1092.91 292.75L1087.84 294.3L1085.71 289.3L1091.14 287.56C1091.78 289.45 1092.26 290.84 1092.91 292.75Z" fill="#D6E7F7"/>
<path d="M1085.12 269.93L1079.8 272.03L1077.8 267.14L1082.67 264.84C1083.47 266.54 1084.16 268 1085.12 269.93Z" fill="#D6E7F7"/>
</g>
<defs>
<clipPath id="clip0_301:2286">
<rect width="1103" height="723" fill="white"/>
</clipPath>
</defs>
</svg>
