<svg width="1120" height="626" viewBox="0 0 1120 626" fill="none" xmlns="http://www.w3.org/2000/svg">
<g clip-path="url(#clip0_299:2046)">
<path d="M575 0V5.7L569.4 6C569.26 3.87 569.13 2 569 0.05L575 0Z" fill="#D6E7F7"/>
<path d="M587 0V5.66H581.38C581.25 3.78 581.13 1.89 581 0H587Z" fill="#D6E7F7"/>
<path d="M569 626C569.1 624.21 569.19 622.43 569.31 620.32L574.65 619.99C574.78 622.17 574.89 624.08 575 625.99L569 626Z" fill="#D6E7F7"/>
<path d="M557 626C557.08 624.22 557.17 622.43 557.26 620.34L562.62 620.05C562.76 622.18 562.88 624.05 563 626.05L557 626Z" fill="#D6E7F7"/>
<path d="M545 626V620.3L550.6 620.04C550.74 622.18 550.87 624.09 551 626.04L545 626Z" fill="#D6E7F7"/>
<path d="M533 626V620.33H538.62C538.75 622.22 538.87 624.11 539 626H533Z" fill="#D6E7F7"/>
<path d="M539 0C538.9 1.77 538.8 3.53 538.68 5.79L533.33 6.07C533.2 3.8 533.1 1.9 533 0H539Z" fill="#D6E7F7"/>
<path d="M551 0C550.9 1.79 550.81 3.57 550.69 5.68L545.35 6C545.22 3.82 545.11 1.91 545 0H551Z" fill="#D6E7F7"/>
<path d="M581 626C581.1 624.23 581.2 622.47 581.32 620.21L586.67 619.93C586.8 622.2 586.9 624.1 587 626H581Z" fill="#D6E7F7"/>
<path d="M1120 316L1114.35 315.72C1114.25 313.98 1114.17 312.41 1114.05 310.4L1120.05 310L1120 316Z" fill="#D6E7F7"/>
<path d="M0 310L5.65 310.28L6 315.6L0 316V310Z" fill="#D6E7F7"/>
<path d="M563 0C562.92 1.78 562.83 3.57 562.74 5.66L557.38 6C557.24 3.87 557.12 2 557 0.05L563 0Z" fill="#D6E7F7"/>
<path d="M0 301C0.56 298.36 2.48 297.3 4.58 298.55C5.72 299.22 5.9 301.55 6.74 303.68L0 304V301Z" fill="#D6E7F7"/>
<path d="M1120 304H1113.45C1114.22 301.75 1114.3 299.32 1115.45 298.57C1117.51 297.24 1119.45 298.33 1119.98 301L1120 304Z" fill="#D6E7F7"/>
<path d="M0 322H6.55C5.78 324.25 5.7 326.67 4.55 327.43C2.48 328.78 0.55 327.61 0.02 325L0 322Z" fill="#D6E7F7"/>
<path d="M1120 325C1119.47 327.69 1117.51 328.67 1115.43 327.45C1114.29 326.78 1114.11 324.45 1113.25 322.32L1120 322V325Z" fill="#D6E7F7"/>
<path d="M232.59 566.79L227.27 564.49L229.39 559.64L234.32 561.19C233.76 563 233.27 564.58 232.59 566.79Z" fill="#D6E7F7"/>
<path d="M887.51 59.23L892.75 61.53C891.99 63.22 891.34 64.68 890.54 66.45L885.6 64.58C886.24 62.77 886.77 61.28 887.51 59.23Z" fill="#D6E7F7"/>
<path d="M509.47 1.37012H514.47C514.62 3.10012 514.74 4.68012 514.9 6.62012L509.45 7.09012L509.47 1.37012Z" fill="#D6E7F7"/>
<path d="M605.38 1.16992L610.68 1.41992C610.77 3.14992 610.86 4.70992 610.96 6.62992H605.38V1.16992Z" fill="#D6E7F7"/>
<path d="M503 7.35993L497.37 7.91993C497.26 6.01993 497.17 4.32993 497.05 2.29993L502.51 1.92993C502.64 3.79993 502.78 5.34993 503 7.35993Z" fill="#D6E7F7"/>
<path d="M622.79 2.24001V7.43001H617.16C617.25 5.54001 617.33 3.99001 617.43 2.01001L622.79 2.24001Z" fill="#D6E7F7"/>
<path d="M610.7 619.39V624.52L605.53 624.84C605.37 622.92 605.23 621.34 605.07 619.39H610.7Z" fill="#D6E7F7"/>
<path d="M514.92 619.38C514.79 621.3 514.69 622.75 514.57 624.5H509.32C509.23 622.85 509.14 621.29 509.04 619.38H514.92Z" fill="#D6E7F7"/>
<path d="M623 623.84H617.51C617.36 622.26 617.21 620.71 617.02 618.77L622.71 617.99C622.82 620 622.9 621.64 623 623.84Z" fill="#D6E7F7"/>
<path d="M497.35 618.5H502.57V623.71H497.35V618.5Z" fill="#D6E7F7"/>
<path d="M331.64 592.73L337.16 594.51C336.57 596.36 336.07 597.9 335.53 599.62L330.35 598.3L331.64 592.73Z" fill="#D6E7F7"/>
<path d="M201.67 547.32L199.23 552.19L194.23 549.83L196.71 544.68L201.67 547.32Z" fill="#D6E7F7"/>
<path d="M169.68 530.84C168.82 532.52 168.11 533.91 167.23 535.65L162.23 533.23L164.84 528.23L169.68 530.84Z" fill="#D6E7F7"/>
<path d="M62.43 448C63.7 449.44 64.76 450.66 66.09 452.18L61.81 456.32L58.5 451.45L62.43 448Z" fill="#D6E7F7"/>
<path d="M1058 170.1L1061.79 174.21L1057.59 177.97L1053.78 173.77L1058 170.1Z" fill="#D6E7F7"/>
<path d="M954.8 97.6499L950.39 95.2399C951.15 93.6399 951.81 92.2399 952.44 90.8799C958.27 92.2399 958.37 92.5199 954.8 97.6499Z" fill="#D6E7F7"/>
<path d="M925.75 76.2299L923.29 81.2299L918.36 78.7699L920.67 73.6899L925.75 76.2299Z" fill="#D6E7F7"/>
<path d="M789.77 27.62C789.27 29.67 788.92 31.09 788.43 33.06L782.88 31.66C783.42 29.76 783.88 28.23 784.37 26.45L789.77 27.62Z" fill="#D6E7F7"/>
<path d="M8.67003 344.94C9.15003 347.07 9.50003 348.6 9.90003 350.38L4.54003 351.58L3.28003 346.34L8.67003 344.94Z" fill="#D6E7F7"/>
<path d="M1116.73 346.37L1115.6 351.43L1110.06 350.5C1110.51 348.56 1110.88 347.01 1111.35 345.04L1116.73 346.37Z" fill="#D6E7F7"/>
<path d="M521.34 6.26992V1.16992H526.54V6.26992H521.34Z" fill="#D6E7F7"/>
<path d="M593.55 1.06006H598.62V6.56006L593.55 6.31006V1.06006Z" fill="#D6E7F7"/>
<path d="M593.39 625.19V619.76L598.69 619.38C598.79 621.38 598.86 622.88 598.95 624.79L593.39 625.19Z" fill="#D6E7F7"/>
<path d="M526.68 624.85H521.29V619.44L526.68 619.71V624.85Z" fill="#D6E7F7"/>
<path d="M671 619.8H665.47L665.05 614.66L670.54 614.09C670.71 616.08 670.84 617.66 671 619.8Z" fill="#D6E7F7"/>
<path d="M1116.81 279.65L1111.39 280.99C1110.93 279.15 1110.51 277.5 1110.02 275.56L1115.4 274.46C1115.85 276.1 1116.26 277.61 1116.81 279.65Z" fill="#D6E7F7"/>
<path d="M449.43 613.82L454.93 614.82C454.79 616.53 454.68 617.97 454.55 619.66H449.09C449.2 617.76 449.3 616.06 449.43 613.82Z" fill="#D6E7F7"/>
<path d="M677 613.34L682.39 612.89C682.65 614.66 682.85 616.07 683.13 618L677.5 619C677.28 616.89 677.15 615.3 677 613.34Z" fill="#D6E7F7"/>
<path d="M8.77007 281.12L3.32007 279.58L4.43007 274.5L9.77007 275.38L8.77007 281.12Z" fill="#D6E7F7"/>
<path d="M437.42 612.86L442.65 613.29V618.75L437.42 618.38V612.86Z" fill="#D6E7F7"/>
<path d="M1104.47 386.13L1099.47 383.66C1100.08 382.05 1100.63 380.59 1101.3 378.8L1106.5 380.75L1104.47 386.13Z" fill="#D6E7F7"/>
<path d="M13.3799 245.13L15.4799 240.06L20.6099 242.29L18.6099 247.29L13.3799 245.13Z" fill="#D6E7F7"/>
<path d="M1057.51 448L1061.77 451.7L1058.22 455.83L1053.93 452.33L1057.51 448Z" fill="#D6E7F7"/>
<path d="M830.65 39.0601L836.06 40.8601C835.55 42.6001 835.06 44.1101 834.52 46.0901L829.17 44.5601C829.65 42.7701 830.06 41.2301 830.65 39.0601Z" fill="#D6E7F7"/>
<path d="M66.22 460.55L70.61 456.78L74.33 460.36C72.89 461.87 71.74 463.1 70.07 464.86C68.72 463.36 67.66 462.16 66.22 460.55Z" fill="#D6E7F7"/>
<path d="M62.5199 177.91L58.1899 174.41L61.7499 170.22L66.0999 173.62L62.5199 177.91Z" fill="#D6E7F7"/>
<path d="M449 6.19995H454.53C454.67 7.86995 454.8 9.41995 454.95 11.34L449.46 11.91C449.29 9.92995 449.16 8.33995 449 6.19995Z" fill="#D6E7F7"/>
<path d="M1049.54 169.27L1045.92 165.45L1050.09 160.83L1052.87 166.12L1049.54 169.27Z" fill="#D6E7F7"/>
<path d="M70.2399 161.28L74.7599 165.37L70.5999 169.27L66.4099 165.58L70.2399 161.28Z" fill="#D6E7F7"/>
<path d="M863 55.9099L865.21 50.9099L870.21 52.5599C869.66 54.3199 869.21 55.8199 868.55 57.8099L863 55.9099Z" fill="#D6E7F7"/>
<path d="M1053.64 460.41L1050.1 464.7L1045.88 460.87L1049.42 456.71L1053.64 460.41Z" fill="#D6E7F7"/>
<path d="M876.36 54.8601L881.45 57.0001C880.8 58.7801 880.25 60.2701 879.58 62.0801L874.44 60.1501C875.12 58.3001 875.7 56.6801 876.36 54.8601Z" fill="#D6E7F7"/>
<path d="M285.51 579.82L290.81 581.52C290.35 583.23 289.94 584.77 289.38 586.87L283.9 585.28C284.45 583.42 284.89 581.91 285.51 579.82Z" fill="#D6E7F7"/>
<path d="M141.46 520.72L144.46 515.95L149.15 518.95L146.3 523.7L141.46 520.72Z" fill="#D6E7F7"/>
<path d="M151.71 527.05L154.54 522.26L159.31 524.96L156.61 529.81L151.71 527.05Z" fill="#D6E7F7"/>
<path d="M904 66.29L901.7 70.91C896.59 70.27 896 68 899 64L904 66.29Z" fill="#D6E7F7"/>
<path d="M677.46 7.1001L682.98 7.7701C682.8 9.6501 682.66 11.2101 682.48 13.1301L677 12.6501C677.14 10.6901 677.28 9.1001 677.46 7.1001Z" fill="#D6E7F7"/>
<path d="M909.57 68.74L914.85 71.06C914.06 72.77 913.38 74.21 912.57 75.96L907.67 74.07L909.57 68.74Z" fill="#D6E7F7"/>
<path d="M443.07 12.35C438.29 13.91 436.4 12.71 437.37 7.82L442.46 7C442.68 9 442.86 10.57 443.07 12.35Z" fill="#D6E7F7"/>
<path d="M978.45 105.2C977.45 106.99 976.61 108.39 975.66 110.03L970.94 107.18C971.8 105.61 972.57 104.18 973.63 102.32L978.45 105.2Z" fill="#D6E7F7"/>
<path d="M257 570.29C256.19 572.11 255.6 573.43 254.86 575.12L249.86 573.47L251.59 568.07L257 570.29Z" fill="#D6E7F7"/>
<path d="M238.58 569.05C239.19 567.28 239.72 565.78 240.36 563.95L245.55 565.77C244.89 567.63 244.33 569.25 243.67 571.1L238.58 569.05Z" fill="#D6E7F7"/>
<path d="M665.57 6L670.9 6.28C670.79 8.21 670.7 9.91 670.59 12.02L665 11.24C665.2 9.32 665.38 7.75 665.57 6Z" fill="#D6E7F7"/>
<path d="M963.43 96.0701L968.15 98.9701C967.2 100.65 966.36 102.15 965.42 103.85L960.75 101C961.66 99.3101 962.42 97.9101 963.43 96.0701Z" fill="#D6E7F7"/>
<path d="M212.44 552.16C211.66 554.05 211.1 555.41 210.34 557.27L205.14 554.98C206.02 553.14 206.7 551.68 207.57 549.86L212.44 552.16Z" fill="#D6E7F7"/>
<path d="M216.09 559.76L218.46 554.76L223.33 556.89C222.66 558.68 222.1 560.16 221.33 562.09L216.09 559.76Z" fill="#D6E7F7"/>
<path d="M896.51 556.94L901.51 554.81C902.33 556.4 903.06 557.81 904.03 559.7L898.84 562.09C898 560.34 897.38 558.9 896.51 556.94Z" fill="#D6E7F7"/>
<path d="M947.38 87.33C946.25 89.16 945.49 90.4 944.58 91.89L939.74 89.51L942.46 84.51L947.38 87.33Z" fill="#D6E7F7"/>
<path d="M863 570.11L868.33 568.18C868.98 569.89 869.54 571.39 870.24 573.18L865.37 575.26C864.56 573.58 863.91 572.14 863 570.11Z" fill="#D6E7F7"/>
<path d="M371 18.8401C371.39 20.4901 371.71 21.9101 372.12 23.6701L367.4 25.0601C365 19.7001 365.09 19.4601 371 18.8401Z" fill="#D6E7F7"/>
<path d="M201.77 78.7901L196.72 81.1601L194.13 76.4101L199.13 73.8301L201.77 78.7901Z" fill="#D6E7F7"/>
<path d="M175.45 534.05L180.19 536.53C179.36 538.16 178.65 539.53 177.68 541.44L172.68 538.77C173.7 537 174.51 535.63 175.45 534.05Z" fill="#D6E7F7"/>
<path d="M124.55 123.26L121.45 118.64L125.86 115.53L129.23 119.86L124.55 123.26Z" fill="#D6E7F7"/>
<path d="M260.94 577.55L262.8 572.28L268.12 574C267.49 575.9 266.99 577.39 266.37 579.23L260.94 577.55Z" fill="#D6E7F7"/>
<path d="M223.49 69.0499L218.49 71.1899C217.67 69.5999 216.93 68.1899 215.98 66.2999L221.16 63.9099C222 65.6599 222.62 67.0999 223.49 69.0499Z" fill="#D6E7F7"/>
<path d="M384.12 21.56L378.6 22.78C378.16 21.07 377.77 19.52 377.27 17.55L382.55 16L384.12 21.56Z" fill="#D6E7F7"/>
<path d="M995.34 502.74L998.56 507.2L994.26 510.52L990.75 506.22L995.34 502.74Z" fill="#D6E7F7"/>
<path d="M1023.68 481L1027.16 485.36L1023.08 488.98C1021.8 487.48 1020.69 486.19 1019.42 484.72L1023.68 481Z" fill="#D6E7F7"/>
<path d="M97 137L100.51 141.39L96.43 145L92.78 140.81L97 137Z" fill="#D6E7F7"/>
<path d="M1023.66 145L1019.47 141.49C1020.61 140.04 1021.67 138.72 1022.91 137.16L1027.25 140.7L1023.66 145Z" fill="#D6E7F7"/>
<path d="M96.42 481C97.92 482.3 99.03 483.25 100.49 484.5C99.4 485.91 98.38 487.25 97.09 488.93L92.74 485.2L96.42 481Z" fill="#D6E7F7"/>
<path d="M1041.17 473.17C1039.72 471.55 1038.75 470.48 1037.45 469.05L1041.45 464.76L1045.2 468.81C1043.83 470.31 1042.66 471.56 1041.17 473.17Z" fill="#D6E7F7"/>
<path d="M78.7299 161L74.9199 157L78.9199 152.77L82.9199 156.53L78.7299 161Z" fill="#D6E7F7"/>
<path d="M313.92 588.28C313.41 590.01 313 591.43 312.43 593.36L306.92 592.22C307.48 590.22 307.92 588.74 308.51 586.75L313.92 588.28Z" fill="#D6E7F7"/>
<path d="M251.58 57.8901L249.82 52.8001L254.74 50.6101C255.5 52.4901 256.12 54.0501 256.87 55.9101L251.58 57.8901Z" fill="#D6E7F7"/>
<path d="M851.83 52.1201C852.49 50.1201 852.94 48.7301 853.55 46.8201L859 48.4301C858.37 50.2101 857.84 51.7001 857.2 53.5301L851.83 52.1201Z" fill="#D6E7F7"/>
<path d="M372.25 602.16C371.73 604.16 371.38 605.6 370.97 607.23L365.91 606.64C366.1 604.74 366.28 603.05 366.5 600.87L372.25 602.16Z" fill="#D6E7F7"/>
<path d="M753.59 600.82C753.8 603.27 753.93 604.71 754.08 606.46L749.24 607.38C748.75 605.74 748.3 604.24 747.72 602.27L753.59 600.82Z" fill="#D6E7F7"/>
<path d="M384.05 604.48L382.72 609.77L377.42 608.77C377.75 606.95 378.06 605.3 378.42 603.26L384.05 604.48Z" fill="#D6E7F7"/>
<path d="M1065.39 187.05L1061.82 182.74L1065.54 178.74L1069.61 183.27L1065.39 187.05Z" fill="#D6E7F7"/>
<path d="M425.54 14.6199C425.37 12.7699 425.24 11.1899 425.07 9.2899L430.17 8.8999C432 13.3999 430.57 15.0999 425.54 14.6199Z" fill="#D6E7F7"/>
<path d="M58.2899 443.23L54.4499 447.23L50.3899 442.73L54.4899 439.01L58.2899 443.23Z" fill="#D6E7F7"/>
<path d="M40.73 205.9L36.05 202.8L39.05 198.14L43.6 201.21L40.73 205.9Z" fill="#D6E7F7"/>
<path d="M1076.18 201.43L1080.74 198.13L1084.01 202.53L1079.59 205.89L1076.18 201.43Z" fill="#D6E7F7"/>
<path d="M1084 423.21L1080.88 427.84L1076.34 424.84L1079.13 420.16L1084 423.21Z" fill="#D6E7F7"/>
<path d="M40.52 420L43.68 424.58L39.26 427.87L36 423.39L40.52 420Z" fill="#D6E7F7"/>
<path d="M31.17 221.13L28.55 225.82L23.55 223.42L26.1901 218.59L31.17 221.13Z" fill="#D6E7F7"/>
<path d="M1096.51 402.53C1095.45 404.41 1094.68 405.78 1093.75 407.45L1088.98 404.89L1091.37 400.19L1096.51 402.53Z" fill="#D6E7F7"/>
<path d="M18.1001 391.82L23.2401 389.58L25.5101 394.43L20.7201 396.94L18.1001 391.82Z" fill="#D6E7F7"/>
<path d="M1101.9 234.18L1096.76 236.42C1095.93 234.65 1095.27 233.22 1094.49 231.57L1099.28 229.06L1101.9 234.18Z" fill="#D6E7F7"/>
<path d="M735.89 604.4L741.59 603.31C741.96 605.11 742.28 606.69 742.65 608.5L737.47 610C737 608.15 736.49 606.51 735.89 604.4Z" fill="#D6E7F7"/>
<path d="M689.38 617.17C689.22 615.17 689.12 613.83 688.98 612.1L694.21 610.89C694.52 612.97 694.76 614.64 695.07 616.68L689.38 617.17Z" fill="#D6E7F7"/>
<path d="M9.30005 256.57L11.07 251.21L16.18 253.08L14.65 258.16L9.30005 256.57Z" fill="#D6E7F7"/>
<path d="M1105.46 367.75L1110.55 369.48C1110.07 371.2 1109.65 372.71 1109.06 374.81L1103.74 372.86C1104.36 371 1104.85 369.54 1105.46 367.75Z" fill="#D6E7F7"/>
<path d="M7.39994 262.68L12.6299 264.26L11.3699 269.26L5.93994 268.2C6.45994 266.26 6.85994 264.74 7.39994 262.68Z" fill="#D6E7F7"/>
<path d="M1107.31 361.66C1107.74 360 1108.09 358.61 1108.54 356.84L1114.11 357.66C1113.55 359.73 1113.11 361.36 1112.57 363.34L1107.31 361.66Z" fill="#D6E7F7"/>
<path d="M806 37.7199L807.62 32.6499L813.11 33.7299C812.52 35.7299 812.05 37.3499 811.48 39.2899L806 37.7199Z" fill="#D6E7F7"/>
<path d="M742.74 17.34C742.3 19.34 741.94 20.89 741.54 22.7L736.15 21.7L737.22 16.23L742.74 17.34Z" fill="#D6E7F7"/>
<path d="M748.86 18.6299L754.04 19.3899C753.89 21.1699 753.74 22.8699 753.55 25.0799L748 23.9999C748.31 22.1499 748.55 20.6199 748.86 18.6299Z" fill="#D6E7F7"/>
<path d="M918.38 547.1L923.31 544.83C924.15 546.44 924.93 547.93 925.85 549.67L920.74 552.22L918.38 547.1Z" fill="#D6E7F7"/>
<path d="M406.61 11.8201C406.88 14.0601 407.06 15.6301 407.29 17.5401L402.23 18.2901C401.78 16.6301 401.4 15.2901 400.88 13.2901L406.61 11.8201Z" fill="#D6E7F7"/>
<path d="M707.17 11.23C706.72 13.31 706.42 14.72 706.05 16.47L700.9 15.75C701.03 13.92 701.15 12.35 701.31 10.23L707.17 11.23Z" fill="#D6E7F7"/>
<path d="M413.81 16.5501C413.45 14.3501 413.25 13.0701 412.97 11.3801L418.49 10.0701C418.77 11.9601 419 13.5201 419.31 15.6801L413.81 16.5501Z" fill="#D6E7F7"/>
<path d="M689.33 8.81006L695.03 9.36006C694.79 11.3001 694.6 12.8901 694.36 14.9001L689.06 14.1501C689.15 12.4101 689.22 11.0001 689.33 8.81006Z" fill="#D6E7F7"/>
<path d="M354.88 27.4201C354.46 25.4201 354.18 24.2001 353.79 22.3701L359.19 20.8101C359.59 22.8601 359.9 24.4201 360.29 26.4101L354.88 27.4201Z" fill="#D6E7F7"/>
<path d="M760.63 20.8601L766.17 22.2301C765.79 24.0501 765.47 25.5701 765.08 27.3901L759.92 26.5301C760.15 24.6701 760.36 23.0001 760.63 20.8601Z" fill="#D6E7F7"/>
<path d="M473 4.10007L478.43 3.57007C478.62 5.44007 478.78 6.97007 478.96 8.79007L473.32 9.67007C473.21 7.70007 473.11 6.00007 473 4.10007Z" fill="#D6E7F7"/>
<path d="M490.91 8.18997L485.36 8.52997C485.22 6.69997 485.11 5.11997 484.96 3.16997L490.44 2.71997C490.6 4.66997 490.74 6.23997 490.91 8.18997Z" fill="#D6E7F7"/>
<path d="M5.81006 357.69L11.4201 356.81C11.9001 358.54 12.2801 359.91 12.7801 361.67L7.52006 363.29C7.00006 361.42 6.50006 359.93 5.81006 357.69Z" fill="#D6E7F7"/>
<path d="M1108.74 269.31C1108.17 267.54 1107.74 266.18 1107.17 264.38L1112.42 262.69C1113.02 264.5 1113.51 265.98 1114.18 268.03L1108.74 269.31Z" fill="#D6E7F7"/>
<path d="M629.11 8.13008C629.27 6.13008 629.39 4.75008 629.52 3.08008H634.71V8.46008L629.11 8.13008Z" fill="#D6E7F7"/>
<path d="M646.73 4V9.14H641.45V4H646.73Z" fill="#D6E7F7"/>
<path d="M20.71 383.78L15.47 385.94L13.53 380.94L18.34 378.68L20.71 383.78Z" fill="#D6E7F7"/>
<path d="M1101.55 247.38L1099.4 242.38L1104.47 240L1106.47 245.06L1101.55 247.38Z" fill="#D6E7F7"/>
<path d="M20.51 229L25.42 231.58L23.24 236.32L18.24 234.07L20.51 229Z" fill="#D6E7F7"/>
<path d="M1094.42 394.36C1095.42 392.42 1096.01 391.26 1096.79 389.75L1101.71 391.75L1099.64 396.85L1094.42 394.36Z" fill="#D6E7F7"/>
<path d="M460.85 5.13009L466.44 4.84009C466.63 6.67009 466.77 8.09009 466.94 9.84009L461.53 10.8401C461.31 9.00009 461.12 7.42009 460.85 5.13009Z" fill="#D6E7F7"/>
<path d="M34.3999 410.39L37.0799 414.84L32.9199 417.61C28.8499 413.21 28.8499 413.21 34.3999 410.39Z" fill="#D6E7F7"/>
<path d="M1082.87 414.79L1085.64 410.4L1090.51 412.89C1089.51 414.66 1088.61 416.14 1087.57 417.94L1082.87 414.79Z" fill="#D6E7F7"/>
<path d="M1087.56 208.08L1090.44 212.74L1085.91 215.74L1082.78 211.25L1087.56 208.08Z" fill="#D6E7F7"/>
<path d="M34.39 215.78L29.55 213L32.41 208.11L37 211L34.39 215.78Z" fill="#D6E7F7"/>
<path d="M42.8799 433.13L47.4699 429.81L50.6099 434.06L46.4499 437.56L42.8799 433.13Z" fill="#D6E7F7"/>
<path d="M659 5.52006C658.88 7.18006 658.78 8.65006 658.64 10.6601L653.43 10.0801C652.41 5.09006 654.31 3.92006 659 5.52006Z" fill="#D6E7F7"/>
<path d="M629.45 623.31C629.34 621.09 629.28 619.65 629.19 617.95L634.62 617.35C634.77 619.27 634.9 620.84 635.06 622.81L629.45 623.31Z" fill="#D6E7F7"/>
<path d="M1066 447L1061.86 443.3L1065.25 439.11L1069.65 442.58C1068.48 444 1067.46 445.23 1066 447Z" fill="#D6E7F7"/>
<path d="M1073.75 188.42C1075.01 190.14 1075.87 191.32 1076.98 192.86L1072.62 196.21C1071.49 194.78 1070.62 193.64 1069.3 192.03L1073.75 188.42Z" fill="#D6E7F7"/>
<path d="M54.6801 187L50.3701 183.52L53.9301 179.19L58.2001 182.71L54.6801 187Z" fill="#D6E7F7"/>
<path d="M718 18.3801L712.89 17.6501C713.01 15.8101 713.12 14.2301 713.25 12.0901L718.9 13.0901C718.56 14.8701 718.31 16.4001 718 18.3801Z" fill="#D6E7F7"/>
<path d="M1045.39 157L1041.29 161.42L1037.29 157.42L1040.94 152.99L1045.39 157Z" fill="#D6E7F7"/>
<path d="M78.63 473.33L75 469.09L78.94 464.7L82.68 468.8L78.63 473.33Z" fill="#D6E7F7"/>
<path d="M485.31 617.35L490.78 617.98C490.71 619.64 490.63 621.18 490.56 622.89H485.31V617.35Z" fill="#D6E7F7"/>
<path d="M641.41 622.54C641.3 620.27 641.24 618.86 641.15 617.18L646.49 616.37C646.71 618.16 646.89 619.69 647.14 621.76L641.41 622.54Z" fill="#D6E7F7"/>
<path d="M1032.11 481.15L1028.41 476.69L1032.48 473.22L1036.37 477.34L1032.11 481.15Z" fill="#D6E7F7"/>
<path d="M87.9999 145.07L91.3899 149.07L87.4799 152.79L83.4199 148.46C84.8899 147.37 86.1799 146.41 87.9999 145.07Z" fill="#D6E7F7"/>
<path d="M478.93 617C478.77 619 478.65 620.45 478.52 622.11H473.3V616.7L478.93 617Z" fill="#D6E7F7"/>
<path d="M658.39 615.3C658.598 616.009 658.758 616.73 658.87 617.46C658.94 618.46 658.87 619.46 658.87 620.78L653.53 621.28C653.35 619.36 653.21 617.81 653.04 616.03L658.39 615.3Z" fill="#D6E7F7"/>
<path d="M461 620.28C461.1 618.85 461.19 617.39 461.32 615.36L466.55 615.91C466.81 621.77 466.66 621.88 461 620.28Z" fill="#D6E7F7"/>
<path d="M111.66 500.37L114.91 495.91L119.41 499.07L116.16 503.46L111.66 500.37Z" fill="#D6E7F7"/>
<path d="M1008.45 500.35L1004.03 503.41L1000.6 499.41L1004.8 495.84L1008.45 500.35Z" fill="#D6E7F7"/>
<path d="M129.26 506L125.96 510.46L121.52 507.57L124.4 502.79L129.26 506Z" fill="#D6E7F7"/>
<path d="M337.21 31.6201L331.68 33.1401C331.18 31.1401 330.8 29.6501 330.32 27.7801L335.49 26.3101C336 28.0001 336.56 29.6301 337.21 31.6201Z" fill="#D6E7F7"/>
<path d="M134.37 509.58L138.92 512.49L136.06 517.27L131.38 514.17L134.37 509.58Z" fill="#D6E7F7"/>
<path d="M985.56 509.53L988.56 514.21L984.11 517.21L980.94 512.66L985.56 509.53Z" fill="#D6E7F7"/>
<path d="M1008.35 125.64C1007.08 127.35 1006.22 128.53 1005.14 130L1000.59 127.1C1001.69 125.51 1002.59 124.1 1003.77 122.49L1008.35 125.64Z" fill="#D6E7F7"/>
<path d="M978.59 520.57L973.99 523.57L970.8 519.22L975.34 515.93C976.43 517.48 977.41 518.88 978.59 520.57Z" fill="#D6E7F7"/>
<path d="M115 130.3L111.72 125.6L116.03 122.52L119.35 126.71L115 130.3Z" fill="#D6E7F7"/>
<path d="M965.39 522.07C966.47 524 967.24 525.4 968.14 527.01L963.53 529.86L960.7 525.23L965.39 522.07Z" fill="#D6E7F7"/>
<path d="M994 115.27L998.49 118.72C997.39 120.34 996.49 121.65 995.49 123.2L991 120.14L994 115.27Z" fill="#D6E7F7"/>
<path d="M306.85 33.7799L312.39 32.6499L313.91 37.5599L308.67 39.2999L306.85 33.7799Z" fill="#D6E7F7"/>
<path d="M988.69 111.82L985.64 116.38L981 113.43L984 108.86L988.69 111.82Z" fill="#D6E7F7"/>
<path d="M944.58 533.71L947.15 538.79L942.38 541.45C941.46 539.82 940.68 538.45 939.75 536.76L944.58 533.71Z" fill="#D6E7F7"/>
<path d="M183.51 544.36L185.96 539.73L190.87 541.73C190.04 543.53 189.33 545.06 188.5 546.84L183.51 544.36Z" fill="#D6E7F7"/>
<path d="M931.62 547.1C930.62 545.1 929.97 543.7 929.13 541.98L933.87 539.56L936.48 544.3L931.62 547.1Z" fill="#D6E7F7"/>
<path d="M131.4 111.74L135.9 108.81C136.9 110.28 137.9 111.68 139.09 113.37L134.55 116.47L131.4 111.74Z" fill="#D6E7F7"/>
<path d="M149.22 106.87L144.62 110.01L141.48 105.62L145.91 102.24L149.22 106.87Z" fill="#D6E7F7"/>
<path d="M159.34 101L154.68 103.65L151.68 99.1101L156.49 96.1101L159.34 101Z" fill="#D6E7F7"/>
<path d="M907.51 552.34L912.32 549.79L914.87 554.68L910 557.37L907.51 552.34Z" fill="#D6E7F7"/>
<path d="M389 15.2799L394.5 13.8999C394.96 15.8099 395.36 17.4799 395.82 19.4099L390.54 20.5299C390.06 18.8699 389.61 17.3599 389 15.2799Z" fill="#D6E7F7"/>
<path d="M430.12 617.05L425.06 616.72C425.23 614.82 425.38 613.24 425.51 611.72C431.26 611.24 431.47 611.48 430.12 617.05Z" fill="#D6E7F7"/>
<path d="M180.31 89.45L175.47 92.08L172.7 87.27L177.7 84.54L180.31 89.45Z" fill="#D6E7F7"/>
<path d="M890.62 559.27C891.46 561.45 892.04 562.94 892.68 564.61L887.68 566.61L885.6 561.71L890.62 559.27Z" fill="#D6E7F7"/>
<path d="M936.5 81.6901L934 86.2801L929.14 84.2001L931.53 79.0901L936.5 81.6901Z" fill="#D6E7F7"/>
<path d="M876.52 571.36C875.7 569.36 875.11 567.87 874.38 566.06L879.28 563.81L881.57 568.74L876.52 571.36Z" fill="#D6E7F7"/>
<path d="M188.37 78.8999L190.87 84.0199L186.13 86.4399L183.52 81.6999L188.37 78.8999Z" fill="#D6E7F7"/>
<path d="M729.61 20.3499L724.26 19.6099C724.63 17.6099 724.96 15.9799 725.36 13.9199L731 15.2399C730.47 17.1299 730.06 18.6599 729.61 20.3499Z" fill="#D6E7F7"/>
<path d="M210.2 68.6799C211.07 70.6199 211.66 71.9399 212.41 73.6299L207.69 76.2899C206.78 74.4899 206.02 72.9799 205.1 71.1799L210.2 68.6799Z" fill="#D6E7F7"/>
<path d="M859.08 577.53L853.92 579.2C853.2 577.65 852.54 576.2 851.63 574.2L857.02 572.2C857.75 574.12 858.34 575.62 859.08 577.53Z" fill="#D6E7F7"/>
<path d="M272.61 581.45C273.16 579.62 273.61 578.09 274.17 576.22L279.3 577.8L277.84 583.09L272.61 581.45Z" fill="#D6E7F7"/>
<path d="M842.24 583.31C841.62 581.08 841.24 579.58 840.75 577.91L845.59 575.99C846.22 577.73 846.78 579.3 847.46 581.2L842.24 583.31Z" fill="#D6E7F7"/>
<path d="M232.49 59.4099L234.35 64.4099L229.6 66.6099L227.16 61.4399L232.49 59.4099Z" fill="#D6E7F7"/>
<path d="M836.14 585.3L830.82 586.76C830.22 585.04 829.71 583.57 829.06 581.68L834.45 579.68C835.05 581.69 835.53 583.3 836.14 585.3Z" fill="#D6E7F7"/>
<path d="M706.75 614.81L701.44 615.81C701.2 613.98 701 612.4 700.77 610.65C704.83 608.87 707.21 609.3 706.75 614.81Z" fill="#D6E7F7"/>
<path d="M418.68 615.91L413.02 614.71C413.3 612.94 413.54 611.41 413.83 609.52L419.1 610.25C419 612.08 418.85 613.65 418.68 615.91Z" fill="#D6E7F7"/>
<path d="M238.5 57.0001L243.5 54.8301C244.23 56.6001 244.83 58.0701 245.58 59.8301L240.58 62.2001L238.5 57.0001Z" fill="#D6E7F7"/>
<path d="M813 592.2L807.74 593.36C807.16 591.77 806.64 590.3 805.96 588.36L811.37 586.67C812 588.64 812.42 590.13 813 592.2Z" fill="#D6E7F7"/>
<path d="M712.67 608.33L717.86 607.71C718.26 609.45 718.61 610.96 719.04 612.84L713.4 614C713.14 612 712.93 610.42 712.67 608.33Z" fill="#D6E7F7"/>
<path d="M407.22 608.18C407.03 610.3 406.89 611.88 406.71 613.97L401 612.89C401.38 611.03 401.68 609.52 402 607.75L407.22 608.18Z" fill="#D6E7F7"/>
<path d="M266.43 46.7C267.07 48.7 267.53 50.06 268.1 51.81L263.05 53.81L260.89 48.5299L266.43 46.7Z" fill="#D6E7F7"/>
<path d="M788.36 592.77L789.62 598.26L784.45 599.69L782.86 594.44L788.36 592.77Z" fill="#D6E7F7"/>
<path d="M724.12 606.45L729.55 605.52C729.99 607.22 730.41 608.85 730.9 610.73L725.53 612.1C725.06 610.2 724.64 608.54 724.12 606.45Z" fill="#D6E7F7"/>
<path d="M390.34 605.6L395.63 606.35C395.35 608.18 395.1 609.85 394.77 611.98L389.17 610.87L390.34 605.6Z" fill="#D6E7F7"/>
<path d="M359.42 605.24L353.93 603.77C354.23 602.06 354.49 600.54 354.8 598.77L360.03 599.36C359.84 601.22 359.66 602.9 359.42 605.24Z" fill="#D6E7F7"/>
<path d="M760.5 605.17C760.26 602.68 760.12 601.25 759.95 599.47L765.11 598.68C765.51 600.45 765.83 601.87 766.24 603.68L760.5 605.17Z" fill="#D6E7F7"/>
<path d="M842.27 42.8501L847.27 44.5401C846.82 46.2501 846.42 47.7701 845.92 49.7101L840.66 48.2801C841.24 46.3501 841.72 44.7101 842.27 42.8501Z" fill="#D6E7F7"/>
<path d="M279.45 48.26L274.25 49.8C273.7 48.14 273.19 46.62 272.56 44.8L277.62 42.8C278.24 44.65 278.74 46.15 279.45 48.26Z" fill="#D6E7F7"/>
<path d="M289.37 39.1799C289.94 41.1799 290.37 42.5399 290.85 44.3399L285.56 46.2899L283.89 40.7899L289.37 39.1799Z" fill="#D6E7F7"/>
<path d="M819.21 35.6201L824.37 37.3001C823.96 39.0501 823.59 40.5901 823.14 42.4701L817.75 41.1801C818.25 39.2701 818.65 37.7301 819.21 35.6201Z" fill="#D6E7F7"/>
<path d="M778.07 601.19L772.7 602.32L771.28 597.23L776.49 595.68C777 597.57 777.49 599.18 778.07 601.19Z" fill="#D6E7F7"/>
<path d="M348.69 597.05L347.51 602.11L342.02 601.39C342.53 599.32 342.9 597.78 343.38 595.82L348.69 597.05Z" fill="#D6E7F7"/>
<path d="M801.27 595.32L796.13 596.62C795.63 594.96 795.13 593.46 794.6 591.62L799.77 589.81C800.32 591.78 800.76 593.41 801.27 595.32Z" fill="#D6E7F7"/>
<path d="M318.6 595.39C319.24 593.22 319.68 591.71 320.21 589.92L325.15 591.33C324.85 593.04 324.58 594.59 324.23 596.56L318.6 595.39Z" fill="#D6E7F7"/>
<path d="M824.58 588.72L819.36 590.25C818.8 588.52 818.36 587.01 817.71 585.1L822.88 583.39C823.46 585.23 824 586.76 824.58 588.72Z" fill="#D6E7F7"/>
<path d="M297 583.48L302.33 584.9C301.78 586.84 301.33 588.37 300.82 590.28L295.6 588.71C296 586.87 296.46 585.33 297 583.48Z" fill="#D6E7F7"/>
<path d="M165.06 97.8999L162.26 93.0899L166.88 90.1699C167.88 91.7199 168.73 93.1699 169.77 94.8899L165.06 97.8999Z" fill="#D6E7F7"/>
<path d="M300.69 35.6899C301.23 37.5399 301.69 39.0599 302.25 40.9699L297.06 42.5699L295.48 37.3499L300.69 35.6899Z" fill="#D6E7F7"/>
<path d="M953.07 535.78L950.19 531.09L954.91 528.2C955.91 529.81 956.76 531.2 957.84 532.9L953.07 535.78Z" fill="#D6E7F7"/>
<path d="M795.78 29.25L801.21 30.6C800.75 32.48 800.36 34.13 799.89 36.07L794.89 34.71C795.16 33 795.41 31.45 795.78 29.25Z" fill="#D6E7F7"/>
<path d="M325.47 34.4901L320.25 36.17C319.72 34.31 319.25 32.6701 318.72 30.7901L323.8 29.3C324.32 30.93 324.8 32.4301 325.47 34.4901Z" fill="#D6E7F7"/>
<path d="M106.3 129.63L109.86 133.83L105.8 137.36L102 133.29L106.3 129.63Z" fill="#D6E7F7"/>
<path d="M1010 492.05L1014.24 488.72L1017.99 492.72L1013.67 496.38L1010 492.05Z" fill="#D6E7F7"/>
<path d="M109.91 491.92L106.53 496.3L102.09 493.05L105.35 488.64L109.91 491.92Z" fill="#D6E7F7"/>
<path d="M1018 133.06L1014.49 137.31L1010.06 134.05C1011.31 132.44 1012.3 131.19 1013.47 129.69L1018 133.06Z" fill="#D6E7F7"/>
<path d="M87.7499 481.05L83.6699 477.33L87.3299 473.33L91.5199 476.89L87.7499 481.05Z" fill="#D6E7F7"/>
<path d="M1036.51 148.53L1032.61 152.71L1028.61 149.14L1032 145L1036.51 148.53Z" fill="#D6E7F7"/>
<path d="M46.32 188.48L50.63 191.84L47.49 196.22L43 193L46.32 188.48Z" fill="#D6E7F7"/>
<path d="M1077.13 433.08L1073.61 437.44L1069.37 434.18L1072.49 429.78L1077.13 433.08Z" fill="#D6E7F7"/>
<path d="M1091.61 226.11L1088.93 221.26L1093.7 218.5L1096.42 223.22L1091.61 226.11Z" fill="#D6E7F7"/>
<path d="M1110.73 256.5L1105.61 258.19C1104.96 256.62 1104.37 255.19 1103.61 253.42L1108.66 251.1C1109.34 252.87 1110 254.46 1110.73 256.5Z" fill="#D6E7F7"/>
<path d="M778.06 24.6101C777.5 26.7801 777.13 28.1901 776.65 30.0401L771.5 29.1001C771.83 27.2701 772.11 25.7501 772.5 23.8301L778.06 24.6101Z" fill="#D6E7F7"/>
<path d="M347.48 23.6201C347.95 25.7201 348.27 27.0901 348.65 28.8001L343.65 30.2601L341.88 24.9301L347.48 23.6201Z" fill="#D6E7F7"/>
<path d="M16.2299 372.87L11.2299 374.8L9.37988 369.55L14.5899 367.69C15.1599 369.57 15.6699 371.15 16.2299 372.87Z" fill="#D6E7F7"/>
<path d="M7.90006 287.31L6.90006 292.12L1.56006 291.79L2.32006 286.08L7.90006 287.31Z" fill="#D6E7F7"/>
<path d="M1113.25 292.36C1112.81 290.45 1112.51 289.18 1112.09 287.41L1117.55 286.01C1117.89 287.94 1118.17 289.54 1118.55 291.56L1113.25 292.36Z" fill="#D6E7F7"/>
<path d="M1113.08 333.81L1118.34 334.21C1118.16 336.07 1118 337.75 1117.8 339.89L1112.22 338.78C1112.51 337.08 1112.75 335.69 1113.08 333.81Z" fill="#D6E7F7"/>
<path d="M7.99996 338.69L2.38996 339.89L1.45996 334.42L6.58996 333.68L7.99996 338.69Z" fill="#D6E7F7"/>
<path d="M31.1401 404.76L26.3601 407.47L23.5601 402.89L28.2301 399.89L31.1401 404.76Z" fill="#D6E7F7"/>
</g>
<defs>
<clipPath id="clip0_299:2046">
<rect width="1120" height="626" fill="white"/>
</clipPath>
</defs>
</svg>
