<svg width="16" height="13" viewBox="0 0 16 13" fill="none" xmlns="http://www.w3.org/2000/svg">
<path d="M5.84617 12.0132C5.7094 12.0128 5.57418 11.9842 5.44892 11.9293C5.32366 11.8744 5.21102 11.7943 5.11802 11.6941L0.270373 6.5372C0.0891619 6.34408 -0.00791256 6.08689 0.000505128 5.8222C0.00892282 5.55751 0.122143 5.30701 0.315259 5.12579C0.508375 4.94458 0.765568 4.84751 1.03026 4.85593C1.29495 4.86434 1.54545 4.97756 1.72666 5.17068L5.83619 9.54952L14.2248 0.372906C14.3099 0.266898 14.4158 0.179413 14.536 0.115824C14.6562 0.0522348 14.7881 0.0138839 14.9236 0.00312697C15.0592 -0.00762998 15.1955 0.00943421 15.3242 0.0532712C15.4528 0.0971082 15.5712 0.166792 15.672 0.258044C15.7728 0.349296 15.8539 0.460188 15.9102 0.583911C15.9666 0.707633 15.9971 0.841573 15.9998 0.977504C16.0025 1.11343 15.9774 1.24849 15.926 1.37436C15.8747 1.50024 15.7981 1.61429 15.7011 1.7095L6.58429 11.6841C6.49216 11.7862 6.37992 11.8681 6.25462 11.9248C6.12931 11.9814 5.99364 12.0115 5.85614 12.0132H5.84617Z" fill="#FA685C"/>
</svg>
