<svg width="78" height="78" viewBox="0 0 78 78" fill="none" xmlns="http://www.w3.org/2000/svg">
<path fill-rule="evenodd" clip-rule="evenodd" d="M47.9556 11.2667C49.4 11.8444 50.8444 12.4222 52.2889 13L59.2222 7.8C60.6667 6.93333 62.4 7.22222 63.2667 8.08889L69.6222 14.4444C70.7778 15.6 70.7778 17.3333 69.9111 18.4889L65 25.7111C65.5778 27.1556 66.1556 28.6 66.7333 30.0444L75.4 31.4889C76.8444 31.4889 78 32.9333 78 34.3778V43.3333C78 44.7778 76.8444 46.2222 75.4 46.5111L66.7333 47.9556C66.1556 49.4 65.5778 50.8444 65 52.2889L70.2 59.2222C71.0667 60.6667 70.7778 62.4 69.9111 63.2667L63.5556 69.6222C62.4 70.7778 60.6667 70.7778 59.5111 69.9111L52.2889 65C50.8444 65.5778 49.4 66.1556 47.9556 66.7333L46.5111 75.4C46.2222 76.8444 44.7778 78 43.3333 78H34.3778C32.9333 78 31.4889 76.8444 31.4889 75.4L30.0444 66.7333C28.6 66.1556 27.1556 65.5778 25.7111 65L18.4889 69.9111C17.3333 70.7778 15.6 70.7778 14.4444 69.6222L8.08889 63.2667C7.22222 62.4 6.93333 60.6667 7.8 59.5111L13 52.2889C12.1333 50.8444 11.5556 49.4 11.2667 47.9556L2.6 46.5111C1.15556 46.2222 0 44.7778 0 43.3333V34.3778C0 32.9333 1.15556 31.4889 2.6 31.4889L11.2667 30.0444C11.5556 28.3111 12.1333 27.1556 13 25.7111L7.8 18.4889C6.93333 17.3333 7.22222 15.6 8.37778 14.4444L14.7333 8.08889C15.6 7.22222 17.3333 6.93333 18.4889 7.8L25.7111 13C27.1556 12.4222 28.6 11.8444 30.0444 11.2667L31.4889 2.6C31.4889 1.15556 32.9333 0 34.3778 0H43.3333C44.7778 0 46.2222 1.15556 46.5111 2.6L47.9556 11.2667ZM39 22.5333C30.0444 22.5333 22.5333 30.0444 22.5333 39C22.5333 47.9556 30.0444 55.4667 39 55.4667C47.9556 55.4667 55.4667 47.9556 55.4667 39C55.4667 30.0444 47.9556 22.5333 39 22.5333Z" fill="#B7DEFB" fill-opacity="0.35"/>
</svg>
