<svg width="33" height="33" viewBox="0 0 33 33" fill="none" xmlns="http://www.w3.org/2000/svg">
<path fill-rule="evenodd" clip-rule="evenodd" d="M13.3353 0C15.4451 0 17.5549 0 19.6647 0C20.6598 0 21.4958 0.835947 21.4958 1.83112C21.4958 5.05549 21.4958 8.27985 21.4958 11.4644C24.7201 11.4644 27.9445 11.4644 31.1689 11.4644C32.1641 11.4644 33 12.3004 33 13.3353C33 15.4451 33 17.5549 33 19.6647C33 20.6598 32.1641 21.4958 31.1689 21.4958C27.9445 21.4958 24.7201 21.4958 21.4958 21.4958C21.4958 24.7201 21.4958 27.9445 21.4958 31.1689C21.4958 32.164 20.6598 33 19.6647 33C17.5549 33 15.4451 33 13.3353 33C12.3004 33 11.4644 32.164 11.4644 31.1689C11.4644 27.9445 11.4644 24.7201 11.4644 21.4958C8.27986 21.4958 5.05549 21.4958 1.83112 21.4958C0.835947 21.4958 0 20.6598 0 19.6647C0 17.5549 0 15.4451 0 13.3353C0 12.3004 0.835947 11.4644 1.83112 11.4644C5.05549 11.4644 8.27986 11.4644 11.4644 11.4644C11.4644 8.27985 11.4644 5.05549 11.4644 1.83112C11.4644 0.835947 12.3004 0 13.3353 0Z" fill="#E4EDF8"/>
</svg>
