<svg width="50" height="50" viewBox="0 0 50 50" fill="none" xmlns="http://www.w3.org/2000/svg">
<path fill-rule="evenodd" clip-rule="evenodd" d="M20.2051 0C23.4017 0 26.5983 0 29.7949 0C31.3028 0 32.5694 1.26659 32.5694 2.77443C32.5694 7.65983 32.5694 12.5452 32.5694 17.3703C37.4548 17.3703 42.3402 17.3703 47.2256 17.3703C48.7334 17.3703 50 18.6369 50 20.2051C50 23.4017 50 26.5983 50 29.7949C50 31.3028 48.7334 32.5694 47.2256 32.5694C42.3402 32.5694 37.4548 32.5694 32.5694 32.5694C32.5694 37.4548 32.5694 42.3402 32.5694 47.2256C32.5694 48.7334 31.3028 50 29.7949 50C26.5983 50 23.4017 50 20.2051 50C18.6369 50 17.3703 48.7334 17.3703 47.2256C17.3703 42.3402 17.3703 37.4548 17.3703 32.5694C12.5452 32.5694 7.65983 32.5694 2.77443 32.5694C1.26659 32.5694 0 31.3028 0 29.7949C0 26.5983 0 23.4017 0 20.2051C0 18.6369 1.26659 17.3703 2.77443 17.3703C7.65983 17.3703 12.5452 17.3703 17.3703 17.3703C17.3703 12.5452 17.3703 7.65983 17.3703 2.77443C17.3703 1.26659 18.6369 0 20.2051 0Z" fill="#E9F4FF"/>
</svg>
