<svg width="52" height="52" viewBox="0 0 52 52" fill="none" xmlns="http://www.w3.org/2000/svg">
<path fill-rule="evenodd" clip-rule="evenodd" d="M31.9704 7.51111C32.9333 7.8963 33.8963 8.28148 34.8593 8.66667L39.4815 5.2C40.4444 4.62222 41.6 4.81481 42.1778 5.39259L46.4148 9.62963C47.1852 10.4 47.1852 11.5556 46.6074 12.3259L43.3333 17.1407C43.7185 18.1037 44.1037 19.0667 44.4889 20.0296L50.2667 20.9926C51.2296 20.9926 52 21.9556 52 22.9185V28.8889C52 29.8519 51.2296 30.8148 50.2667 31.0074L44.4889 31.9704C44.1037 32.9333 43.7185 33.8963 43.3333 34.8593L46.8 39.4815C47.3778 40.4444 47.1852 41.6 46.6074 42.1778L42.3704 46.4148C41.6 47.1852 40.4444 47.1852 39.6741 46.6074L34.8593 43.3333C33.8963 43.7185 32.9333 44.1037 31.9704 44.4889L31.0074 50.2667C30.8148 51.2296 29.8519 52 28.8889 52H22.9185C21.9556 52 20.9926 51.2296 20.9926 50.2667L20.0296 44.4889C19.0667 44.1037 18.1037 43.7185 17.1407 43.3333L12.3259 46.6074C11.5556 47.1852 10.4 47.1852 9.62963 46.4148L5.39259 42.1778C4.81481 41.6 4.62222 40.4444 5.2 39.6741L8.66667 34.8593C8.08889 33.8963 7.7037 32.9333 7.51111 31.9704L1.73333 31.0074C0.77037 30.8148 0 29.8519 0 28.8889V22.9185C0 21.9556 0.77037 20.9926 1.73333 20.9926L7.51111 20.0296C7.7037 18.8741 8.08889 18.1037 8.66667 17.1407L5.2 12.3259C4.62222 11.5556 4.81481 10.4 5.58519 9.62963L9.82222 5.39259C10.4 4.81481 11.5556 4.62222 12.3259 5.2L17.1407 8.66667C18.1037 8.28148 19.0667 7.8963 20.0296 7.51111L20.9926 1.73333C20.9926 0.77037 21.9556 0 22.9185 0H28.8889C29.8519 0 30.8148 0.77037 31.0074 1.73333L31.9704 7.51111ZM26 15.0222C20.0296 15.0222 15.0222 20.0296 15.0222 26C15.0222 31.9704 20.0296 36.9778 26 36.9778C31.9704 36.9778 36.9778 31.9704 36.9778 26C36.9778 20.0296 31.9704 15.0222 26 15.0222Z" fill="#FFF1F0"/>
</svg>
