<svg width="46" height="41" viewBox="0 0 46 41" fill="none" xmlns="http://www.w3.org/2000/svg">
<path d="M39.9195 0C36.5708 5.32468e-06 33.8391 2.75099 33.8391 6.12338C33.8391 7.52171 34.3063 8.8178 35.0948 9.85065L31.9555 12.9955C30.2498 11.539 28.0495 10.6494 25.6437 10.6494C20.2508 10.6494 15.8621 15.0691 15.8621 20.5C15.8621 21.0984 15.9253 21.6945 16.0273 22.2638L11.6818 23.4452C10.7565 21.2488 8.59202 19.7013 6.08046 19.7013C2.73171 19.7013 3.64828e-06 22.4522 0 25.8247C-3.01379e-06 29.1971 2.7317 31.9481 6.08046 31.9481C9.42922 31.9481 12.1609 29.1971 12.1609 25.8247C12.1609 25.5341 12.134 25.2561 12.0948 24.9761L16.4404 23.7946C17.7889 27.6118 21.3968 30.3507 25.6437 30.3507C28.0579 30.3507 30.2639 29.4702 31.972 28.0045L35.1114 31.1494C34.3142 32.1853 33.8391 33.4698 33.8391 34.8766C33.8391 38.249 36.5708 41 39.9195 41C43.2683 41 46 38.249 46 34.8766C46 31.5042 43.2683 28.7532 39.9195 28.7532C38.538 28.7532 37.2579 29.2309 36.2349 30.0179L33.0955 26.873C34.5456 25.1543 35.4253 22.9262 35.4253 20.5C35.4253 18.0654 34.538 15.8482 33.079 14.127L36.2184 10.9821C37.244 11.7763 38.531 12.2468 39.9195 12.2468C43.2683 12.2467 46 9.49577 46 6.12338C46 2.75099 43.2683 0 39.9195 0Z" fill="#FFEFEE"/>
</svg>
